<svg width="22" height="36" viewBox="0 0 22 36" fill="none" xmlns="http://www.w3.org/2000/svg">
<path d="M2.565 27.61H3.519L6.003 34H4.941L4.266 32.263H1.8L1.134 34H0.063L2.565 27.61ZM4.068 31.516L3.042 28.717L1.98 31.516H4.068ZM9.94324 34L8.43124 31.831L7.65724 32.569V34H6.66724V27.43H7.65724V31.57L9.83524 29.302H10.8972L9.07024 31.273L10.9962 34H9.94324ZM11.5529 32.173V29.293H12.5429V31.975C12.5429 32.395 12.6179 32.713 12.7679 32.929C12.9239 33.139 13.1489 33.244 13.4429 33.244C13.6289 33.244 13.8089 33.205 13.9829 33.127C14.1629 33.049 14.3249 32.935 14.4689 32.785C14.6189 32.629 14.7389 32.443 14.8289 32.227V29.293H15.8189V32.884C15.8189 32.998 15.8399 33.079 15.8819 33.127C15.9239 33.175 15.9929 33.202 16.0889 33.208V34C15.9869 34.018 15.9029 34.03 15.8369 34.036C15.7709 34.042 15.7079 34.045 15.6479 34.045C15.4679 34.045 15.3179 33.997 15.1979 33.901C15.0779 33.799 15.0089 33.67 14.9909 33.514L14.9729 33.046C14.7629 33.388 14.4899 33.649 14.1539 33.829C13.8179 34.003 13.4489 34.09 13.0469 34.09C12.5549 34.09 12.1829 33.928 11.9309 33.604C11.6789 33.28 11.5529 32.803 11.5529 32.173ZM21.3033 34H20.3133V31.363C20.3133 30.925 20.2413 30.604 20.0973 30.4C19.9593 30.196 19.7523 30.094 19.4763 30.094C19.2843 30.094 19.0923 30.142 18.9003 30.238C18.7143 30.334 18.5463 30.466 18.3963 30.634C18.2463 30.796 18.1383 30.985 18.0723 31.201V34H17.0823V29.293H17.9823V30.238C18.1023 30.028 18.2583 29.848 18.4503 29.698C18.6483 29.542 18.8703 29.422 19.1163 29.338C19.3623 29.254 19.6233 29.212 19.8993 29.212C20.1813 29.212 20.4123 29.263 20.5923 29.365C20.7783 29.467 20.9223 29.608 21.0243 29.788C21.1323 29.962 21.2043 30.166 21.2403 30.4C21.2823 30.628 21.3033 30.871 21.3033 31.129V34Z" fill="#717171"/>
<path d="M11.3709 11C14.3834 11 16.8255 8.76142 16.8255 6C16.8255 3.23858 14.3834 1 11.3709 1C8.35846 1 5.91638 3.23858 5.91638 6C5.91638 8.76142 8.35846 11 11.3709 11Z" stroke="#B0B0B0" stroke-width="1.5" stroke-linecap="round" stroke-linejoin="round"/>
<path d="M20.7418 21C20.7418 17.13 16.5418 14 11.3709 14C6.2 14 2 17.13 2 21" stroke="#B0B0B0" stroke-width="1.5" stroke-linecap="round" stroke-linejoin="round"/>
</svg>
