<svg width="37" height="35" viewBox="0 0 37 35" fill="none" xmlns="http://www.w3.org/2000/svg">
<path d="M5.742 31.353C5.742 31.695 5.652 31.989 5.472 32.235C5.298 32.481 5.061 32.67 4.761 32.802C4.461 32.934 4.131 33 3.771 33H0.72V26.61H4.014C4.314 26.61 4.572 26.691 4.788 26.853C5.01 27.009 5.178 27.213 5.292 27.465C5.412 27.711 5.472 27.969 5.472 28.239C5.472 28.551 5.391 28.845 5.229 29.121C5.073 29.391 4.848 29.592 4.554 29.724C4.92 29.832 5.208 30.03 5.418 30.318C5.634 30.6 5.742 30.945 5.742 31.353ZM4.707 31.164C4.707 30.984 4.668 30.822 4.59 30.678C4.518 30.528 4.416 30.408 4.284 30.318C4.158 30.222 4.008 30.174 3.834 30.174H1.728V32.127H3.771C3.951 32.127 4.11 32.085 4.248 32.001C4.392 31.911 4.503 31.794 4.581 31.65C4.665 31.5 4.707 31.338 4.707 31.164ZM1.728 27.483V29.364H3.582C3.75 29.364 3.9 29.325 4.032 29.247C4.164 29.163 4.269 29.052 4.347 28.914C4.425 28.77 4.464 28.608 4.464 28.428C4.464 28.242 4.428 28.08 4.356 27.942C4.284 27.798 4.185 27.687 4.059 27.609C3.939 27.525 3.798 27.483 3.636 27.483H1.728ZM8.80024 33.09C8.43424 33.09 8.10124 33.027 7.80124 32.901C7.50724 32.769 7.25224 32.592 7.03624 32.37C6.82024 32.142 6.65224 31.884 6.53224 31.596C6.41824 31.302 6.36124 30.99 6.36124 30.66C6.36124 30.216 6.46324 29.811 6.66724 29.445C6.87124 29.073 7.15624 28.776 7.52224 28.554C7.88824 28.326 8.31724 28.212 8.80924 28.212C9.30124 28.212 9.72424 28.326 10.0782 28.554C10.4382 28.776 10.7172 29.07 10.9152 29.436C11.1132 29.802 11.2122 30.195 11.2122 30.615C11.2122 30.687 11.2092 30.756 11.2032 30.822C11.1972 30.882 11.1912 30.933 11.1852 30.975H7.41424C7.43224 31.251 7.50724 31.494 7.63924 31.704C7.77724 31.908 7.95124 32.07 8.16124 32.19C8.37124 32.304 8.59624 32.361 8.83624 32.361C9.10024 32.361 9.34924 32.295 9.58324 32.163C9.82324 32.031 9.98524 31.857 10.0692 31.641L10.9152 31.884C10.8132 32.112 10.6572 32.319 10.4472 32.505C10.2432 32.685 10.0002 32.829 9.71824 32.937C9.43624 33.039 9.13024 33.09 8.80024 33.09ZM7.38724 30.318H10.2312C10.2132 30.048 10.1352 29.811 9.99724 29.607C9.86524 29.397 9.69424 29.235 9.48424 29.121C9.28024 29.001 9.05224 28.941 8.80024 28.941C8.55424 28.941 8.32624 29.001 8.11624 29.121C7.91224 29.235 7.74424 29.397 7.61224 29.607C7.48024 29.811 7.40524 30.048 7.38724 30.318ZM14.6658 29.148C14.2818 29.154 13.9398 29.241 13.6398 29.409C13.3458 29.577 13.1358 29.814 13.0098 30.12V33H12.0198V28.293H12.9378V29.346C13.0998 29.022 13.3128 28.764 13.5768 28.572C13.8408 28.374 14.1198 28.266 14.4138 28.248C14.4738 28.248 14.5218 28.248 14.5578 28.248C14.5998 28.248 14.6358 28.251 14.6658 28.257V29.148ZM15.0352 31.623C15.0352 31.323 15.1192 31.062 15.2872 30.84C15.4612 30.612 15.6982 30.438 15.9982 30.318C16.2982 30.192 16.6462 30.129 17.0422 30.129C17.2522 30.129 17.4652 30.144 17.6812 30.174C17.9032 30.204 18.0982 30.252 18.2662 30.318V30.021C18.2662 29.691 18.1672 29.433 17.9692 29.247C17.7712 29.061 17.4862 28.968 17.1142 28.968C16.8502 28.968 16.6012 29.016 16.3672 29.112C16.1332 29.202 15.8842 29.331 15.6202 29.499L15.2872 28.833C15.5992 28.623 15.9112 28.467 16.2232 28.365C16.5412 28.263 16.8742 28.212 17.2222 28.212C17.8522 28.212 18.3472 28.38 18.7072 28.716C19.0732 29.046 19.2562 29.517 19.2562 30.129V31.884C19.2562 31.998 19.2742 32.079 19.3102 32.127C19.3522 32.175 19.4212 32.202 19.5172 32.208V33C19.4272 33.018 19.3462 33.03 19.2742 33.036C19.2022 33.042 19.1422 33.045 19.0942 33.045C18.8842 33.045 18.7252 32.994 18.6172 32.892C18.5092 32.79 18.4462 32.67 18.4282 32.532L18.4012 32.262C18.1972 32.526 17.9362 32.73 17.6182 32.874C17.3002 33.018 16.9792 33.09 16.6552 33.09C16.3432 33.09 16.0642 33.027 15.8182 32.901C15.5722 32.769 15.3802 32.592 15.2422 32.37C15.1042 32.148 15.0352 31.899 15.0352 31.623ZM18.0322 31.911C18.1042 31.833 18.1612 31.755 18.2032 31.677C18.2452 31.599 18.2662 31.53 18.2662 31.47V30.93C18.0982 30.864 17.9212 30.816 17.7352 30.786C17.5492 30.75 17.3662 30.732 17.1862 30.732C16.8262 30.732 16.5322 30.804 16.3042 30.948C16.0822 31.092 15.9712 31.29 15.9712 31.542C15.9712 31.68 16.0072 31.812 16.0792 31.938C16.1572 32.064 16.2652 32.166 16.4032 32.244C16.5472 32.322 16.7242 32.361 16.9342 32.361C17.1502 32.361 17.3572 32.319 17.5552 32.235C17.7532 32.151 17.9122 32.043 18.0322 31.911ZM24.6783 33H23.6883V30.363C23.6883 29.925 23.6163 29.604 23.4723 29.4C23.3343 29.196 23.1273 29.094 22.8513 29.094C22.6593 29.094 22.4673 29.142 22.2753 29.238C22.0893 29.334 21.9213 29.466 21.7713 29.634C21.6213 29.796 21.5133 29.985 21.4473 30.201V33H20.4573V28.293H21.3573V29.238C21.4773 29.028 21.6333 28.848 21.8253 28.698C22.0233 28.542 22.2453 28.422 22.4913 28.338C22.7373 28.254 22.9983 28.212 23.2743 28.212C23.5563 28.212 23.7873 28.263 23.9673 28.365C24.1533 28.467 24.2973 28.608 24.3993 28.788C24.5073 28.962 24.5793 29.166 24.6153 29.4C24.6573 29.628 24.6783 29.871 24.6783 30.129V33ZM25.5304 30.651C25.5304 30.201 25.6204 29.793 25.8004 29.427C25.9864 29.055 26.2384 28.761 26.5564 28.545C26.8744 28.323 27.2404 28.212 27.6544 28.212C28.0144 28.212 28.3384 28.305 28.6264 28.491C28.9204 28.677 29.1484 28.908 29.3104 29.184V26.43H30.3004V31.884C30.3004 31.998 30.3214 32.079 30.3634 32.127C30.4054 32.175 30.4744 32.202 30.5704 32.208V33C30.3844 33.03 30.2404 33.045 30.1384 33.045C29.9524 33.045 29.7934 32.991 29.6614 32.883C29.5354 32.775 29.4694 32.646 29.4634 32.496L29.4544 32.145C29.2744 32.445 29.0314 32.679 28.7254 32.847C28.4194 33.009 28.1014 33.09 27.7714 33.09C27.4474 33.09 27.1474 33.027 26.8714 32.901C26.6014 32.775 26.3644 32.598 26.1604 32.37C25.9624 32.142 25.8064 31.881 25.6924 31.587C25.5844 31.293 25.5304 30.981 25.5304 30.651ZM29.3104 31.308V30.075C29.2444 29.883 29.1364 29.712 28.9864 29.562C28.8424 29.406 28.6774 29.283 28.4914 29.193C28.3114 29.103 28.1314 29.058 27.9514 29.058C27.7414 29.058 27.5494 29.103 27.3754 29.193C27.2074 29.283 27.0604 29.403 26.9344 29.553C26.8144 29.703 26.7214 29.874 26.6554 30.066C26.5894 30.258 26.5564 30.459 26.5564 30.669C26.5564 30.885 26.5924 31.089 26.6644 31.281C26.7364 31.467 26.8384 31.635 26.9704 31.785C27.1084 31.929 27.2644 32.043 27.4384 32.127C27.6184 32.205 27.8134 32.244 28.0234 32.244C28.1554 32.244 28.2874 32.22 28.4194 32.172C28.5574 32.124 28.6864 32.058 28.8064 31.974C28.9324 31.89 29.0374 31.791 29.1214 31.677C29.2114 31.563 29.2744 31.44 29.3104 31.308ZM31.2159 31.623C31.2159 31.323 31.2999 31.062 31.4679 30.84C31.6419 30.612 31.8789 30.438 32.1789 30.318C32.4789 30.192 32.8269 30.129 33.2229 30.129C33.4329 30.129 33.6459 30.144 33.8619 30.174C34.0839 30.204 34.2789 30.252 34.4469 30.318V30.021C34.4469 29.691 34.3479 29.433 34.1499 29.247C33.9519 29.061 33.6669 28.968 33.2949 28.968C33.0309 28.968 32.7819 29.016 32.5479 29.112C32.3139 29.202 32.0649 29.331 31.8009 29.499L31.4679 28.833C31.7799 28.623 32.0919 28.467 32.4039 28.365C32.7219 28.263 33.0549 28.212 33.4029 28.212C34.0329 28.212 34.5279 28.38 34.8879 28.716C35.2539 29.046 35.4369 29.517 35.4369 30.129V31.884C35.4369 31.998 35.4549 32.079 35.4909 32.127C35.5329 32.175 35.6019 32.202 35.6979 32.208V33C35.6079 33.018 35.5269 33.03 35.4549 33.036C35.3829 33.042 35.3229 33.045 35.2749 33.045C35.0649 33.045 34.9059 32.994 34.7979 32.892C34.6899 32.79 34.6269 32.67 34.6089 32.532L34.5819 32.262C34.3779 32.526 34.1169 32.73 33.7989 32.874C33.4809 33.018 33.1599 33.09 32.8359 33.09C32.5239 33.09 32.2449 33.027 31.9989 32.901C31.7529 32.769 31.5609 32.592 31.4229 32.37C31.2849 32.148 31.2159 31.899 31.2159 31.623ZM34.2129 31.911C34.2849 31.833 34.3419 31.755 34.3839 31.677C34.4259 31.599 34.4469 31.53 34.4469 31.47V30.93C34.2789 30.864 34.1019 30.816 33.9159 30.786C33.7299 30.75 33.5469 30.732 33.3669 30.732C33.0069 30.732 32.7129 30.804 32.4849 30.948C32.2629 31.092 32.1519 31.29 32.1519 31.542C32.1519 31.68 32.1879 31.812 32.2599 31.938C32.3379 32.064 32.4459 32.166 32.5839 32.244C32.7279 32.322 32.9049 32.361 33.1149 32.361C33.3309 32.361 33.5379 32.319 33.7359 32.235C33.9339 32.151 34.0929 32.043 34.2129 31.911Z" fill="#717171"/>
<path d="M19.6906 1.24315L19.6921 1.24438L26.752 6.88823C26.7523 6.88847 26.7526 6.88871 26.7529 6.88895C27.0163 7.10139 27.2721 7.46955 27.4426 7.91654C27.6131 8.36325 27.6683 8.80999 27.6136 9.14729C27.6135 9.14774 27.6134 9.14818 27.6133 9.14863L26.2589 17.2552C26.2588 17.2556 26.2587 17.256 26.2587 17.2563C26.0747 18.3335 24.9903 19.25 23.9003 19.25H12.487C11.3861 19.25 10.3127 18.3429 10.1288 17.2568C10.1287 17.2565 10.1287 17.2563 10.1287 17.2561L8.77357 9.14588L8.77359 9.14587L8.77279 9.14129C8.71472 8.80651 8.76717 8.36194 8.9371 7.91654C9.10698 7.47124 9.36434 7.10365 9.63165 6.89118L9.63165 6.89118L9.6338 6.88947L16.6958 1.23378L16.6961 1.23348C17.5007 0.588328 18.8731 0.58614 19.6906 1.24315ZM14.8961 11.0222C14.8961 12.8427 16.3732 14.3198 18.1937 14.3198C20.0142 14.3198 21.4913 12.8427 21.4913 11.0222C21.4913 9.20174 20.0142 7.72462 18.1937 7.72462C16.3732 7.72462 14.8961 9.20174 14.8961 11.0222Z" stroke="#293881" stroke-width="1.5"/>
</svg>
