<svg width="24" height="36" viewBox="0 0 24 36" fill="none" xmlns="http://www.w3.org/2000/svg">
<path d="M6.093 34V29.446L4.212 32.902H3.618L1.728 29.446V34H0.72V27.61H1.8L3.915 31.516L6.03 27.61H7.11V34H6.093ZM10.479 34.09C10.113 34.09 9.77995 34.027 9.47995 33.901C9.18595 33.769 8.93095 33.592 8.71495 33.37C8.49895 33.142 8.33095 32.884 8.21095 32.596C8.09695 32.302 8.03995 31.99 8.03995 31.66C8.03995 31.216 8.14195 30.811 8.34595 30.445C8.54995 30.073 8.83495 29.776 9.20095 29.554C9.56695 29.326 9.99595 29.212 10.488 29.212C10.98 29.212 11.403 29.326 11.757 29.554C12.117 29.776 12.396 30.07 12.594 30.436C12.792 30.802 12.891 31.195 12.891 31.615C12.891 31.687 12.888 31.756 12.882 31.822C12.876 31.882 12.87 31.933 12.864 31.975H9.09295C9.11095 32.251 9.18595 32.494 9.31795 32.704C9.45595 32.908 9.62995 33.07 9.83995 33.19C10.05 33.304 10.275 33.361 10.515 33.361C10.779 33.361 11.028 33.295 11.262 33.163C11.502 33.031 11.664 32.857 11.748 32.641L12.594 32.884C12.492 33.112 12.336 33.319 12.126 33.505C11.922 33.685 11.679 33.829 11.397 33.937C11.115 34.039 10.809 34.09 10.479 34.09ZM9.06595 31.318H11.91C11.892 31.048 11.814 30.811 11.676 30.607C11.544 30.397 11.373 30.235 11.163 30.121C10.959 30.001 10.731 29.941 10.479 29.941C10.233 29.941 10.005 30.001 9.79495 30.121C9.59095 30.235 9.42295 30.397 9.29095 30.607C9.15895 30.811 9.08395 31.048 9.06595 31.318ZM17.9195 34H16.9295V31.363C16.9295 30.925 16.8575 30.604 16.7135 30.4C16.5755 30.196 16.3685 30.094 16.0925 30.094C15.9005 30.094 15.7085 30.142 15.5165 30.238C15.3305 30.334 15.1625 30.466 15.0125 30.634C14.8625 30.796 14.7545 30.985 14.6885 31.201V34H13.6985V29.293H14.5985V30.238C14.7185 30.028 14.8745 29.848 15.0665 29.698C15.2645 29.542 15.4865 29.422 15.7325 29.338C15.9785 29.254 16.2395 29.212 16.5155 29.212C16.7975 29.212 17.0285 29.263 17.2085 29.365C17.3945 29.467 17.5385 29.608 17.6405 29.788C17.7485 29.962 17.8205 30.166 17.8565 30.4C17.8985 30.628 17.9195 30.871 17.9195 31.129V34ZM19.0236 32.173V29.293H20.0136V31.975C20.0136 32.395 20.0886 32.713 20.2386 32.929C20.3946 33.139 20.6196 33.244 20.9136 33.244C21.0996 33.244 21.2796 33.205 21.4536 33.127C21.6336 33.049 21.7956 32.935 21.9396 32.785C22.0896 32.629 22.2096 32.443 22.2996 32.227V29.293H23.2896V32.884C23.2896 32.998 23.3106 33.079 23.3526 33.127C23.3946 33.175 23.4636 33.202 23.5596 33.208V34C23.4576 34.018 23.3736 34.03 23.3076 34.036C23.2416 34.042 23.1786 34.045 23.1186 34.045C22.9386 34.045 22.7886 33.997 22.6686 33.901C22.5486 33.799 22.4796 33.67 22.4616 33.514L22.4436 33.046C22.2336 33.388 21.9606 33.649 21.6246 33.829C21.2886 34.003 20.9196 34.09 20.5176 34.09C20.0256 34.09 19.6536 33.928 19.4016 33.604C19.1496 33.28 19.0236 32.803 19.0236 32.173Z" fill="#717171"/>
<path d="M8 1V4" stroke="#293881" stroke-width="1.5" stroke-miterlimit="10" stroke-linecap="round" stroke-linejoin="round"/>
<path d="M16 1V4" stroke="#293881" stroke-width="1.5" stroke-miterlimit="10" stroke-linecap="round" stroke-linejoin="round"/>
<path d="M21 7.5V16C21 19 19.5 21 16 21H8C4.5 21 3 19 3 16V7.5C3 4.5 4.5 2.5 8 2.5H16C19.5 2.5 21 4.5 21 7.5Z" stroke="#293881" stroke-width="1.5" stroke-miterlimit="10" stroke-linecap="round" stroke-linejoin="round"/>
<path d="M8 10H16" stroke="#293881" stroke-width="1.5" stroke-miterlimit="10" stroke-linecap="round" stroke-linejoin="round"/>
<path d="M8 15H12" stroke="#293881" stroke-width="1.5" stroke-miterlimit="10" stroke-linecap="round" stroke-linejoin="round"/>
</svg>
