<svg width="29" height="36" viewBox="0 0 29 36" fill="none" xmlns="http://www.w3.org/2000/svg">
<path d="M0.72 34V27.61H3.402C3.69 27.61 3.954 27.67 4.194 27.79C4.434 27.91 4.644 28.069 4.824 28.267C5.004 28.465 5.142 28.687 5.238 28.933C5.334 29.179 5.382 29.431 5.382 29.689C5.382 30.043 5.301 30.382 5.139 30.706C4.983 31.024 4.758 31.282 4.464 31.48C4.176 31.678 3.84 31.777 3.456 31.777H1.728V34H0.72ZM1.728 30.886H3.393C3.585 30.886 3.753 30.835 3.897 30.733C4.041 30.625 4.152 30.481 4.23 30.301C4.314 30.121 4.356 29.917 4.356 29.689C4.356 29.455 4.308 29.248 4.212 29.068C4.116 28.888 3.99 28.75 3.834 28.654C3.684 28.552 3.519 28.501 3.339 28.501H1.728V30.886ZM8.84742 30.148C8.46342 30.154 8.12142 30.241 7.82142 30.409C7.52742 30.577 7.31742 30.814 7.19142 31.12V34H6.20142V29.293H7.11942V30.346C7.28142 30.022 7.49442 29.764 7.75842 29.572C8.02242 29.374 8.30142 29.266 8.59542 29.248C8.65542 29.248 8.70342 29.248 8.73942 29.248C8.78142 29.248 8.81742 29.251 8.84742 29.257V30.148ZM11.5947 34.09C11.2227 34.09 10.8897 34.027 10.5957 33.901C10.3017 33.769 10.0467 33.589 9.83074 33.361C9.62074 33.133 9.45874 32.875 9.34474 32.587C9.23074 32.293 9.17374 31.981 9.17374 31.651C9.17374 31.321 9.23074 31.009 9.34474 30.715C9.45874 30.421 9.62074 30.163 9.83074 29.941C10.0467 29.713 10.3017 29.536 10.5957 29.41C10.8957 29.278 11.2287 29.212 11.5947 29.212C11.9607 29.212 12.2907 29.278 12.5847 29.41C12.8847 29.536 13.1397 29.713 13.3497 29.941C13.5657 30.163 13.7307 30.421 13.8447 30.715C13.9587 31.009 14.0157 31.321 14.0157 31.651C14.0157 31.981 13.9587 32.293 13.8447 32.587C13.7307 32.875 13.5657 33.133 13.3497 33.361C13.1397 33.589 12.8847 33.769 12.5847 33.901C12.2907 34.027 11.9607 34.09 11.5947 34.09ZM10.1907 31.66C10.1907 31.96 10.2537 32.23 10.3797 32.47C10.5057 32.71 10.6737 32.899 10.8837 33.037C11.0937 33.175 11.3307 33.244 11.5947 33.244C11.8527 33.244 12.0867 33.175 12.2967 33.037C12.5127 32.893 12.6837 32.701 12.8097 32.461C12.9357 32.215 12.9987 31.945 12.9987 31.651C12.9987 31.351 12.9357 31.081 12.8097 30.841C12.6837 30.601 12.5127 30.412 12.2967 30.274C12.0867 30.13 11.8527 30.058 11.5947 30.058C11.3307 30.058 11.0937 30.13 10.8837 30.274C10.6737 30.418 10.5057 30.61 10.3797 30.85C10.2537 31.084 10.1907 31.354 10.1907 31.66ZM22.0938 34H21.1038V31.363C21.1038 30.925 21.0318 30.604 20.8878 30.4C20.7438 30.196 20.5338 30.094 20.2578 30.094C19.9818 30.094 19.7238 30.199 19.4838 30.409C19.2498 30.613 19.0848 30.88 18.9888 31.21V34H17.9988V31.363C17.9988 30.925 17.9268 30.604 17.7828 30.4C17.6388 30.196 17.4318 30.094 17.1618 30.094C16.8858 30.094 16.6278 30.196 16.3878 30.4C16.1538 30.604 15.9858 30.871 15.8838 31.201V34H14.8938V29.293H15.7938V30.238C15.9798 29.908 16.2228 29.656 16.5228 29.482C16.8288 29.302 17.1768 29.212 17.5668 29.212C17.9568 29.212 18.2628 29.314 18.4848 29.518C18.7128 29.722 18.8538 29.977 18.9078 30.283C19.1118 29.935 19.3608 29.671 19.6548 29.491C19.9548 29.305 20.2968 29.212 20.6808 29.212C20.9568 29.212 21.1878 29.263 21.3738 29.365C21.5598 29.467 21.7038 29.608 21.8058 29.788C21.9078 29.962 21.9798 30.166 22.0218 30.4C22.0698 30.628 22.0938 30.871 22.0938 31.129V34ZM25.3496 34.09C24.9776 34.09 24.6446 34.027 24.3506 33.901C24.0566 33.769 23.8016 33.589 23.5856 33.361C23.3756 33.133 23.2136 32.875 23.0996 32.587C22.9856 32.293 22.9286 31.981 22.9286 31.651C22.9286 31.321 22.9856 31.009 23.0996 30.715C23.2136 30.421 23.3756 30.163 23.5856 29.941C23.8016 29.713 24.0566 29.536 24.3506 29.41C24.6506 29.278 24.9836 29.212 25.3496 29.212C25.7156 29.212 26.0456 29.278 26.3396 29.41C26.6396 29.536 26.8946 29.713 27.1046 29.941C27.3206 30.163 27.4856 30.421 27.5996 30.715C27.7136 31.009 27.7706 31.321 27.7706 31.651C27.7706 31.981 27.7136 32.293 27.5996 32.587C27.4856 32.875 27.3206 33.133 27.1046 33.361C26.8946 33.589 26.6396 33.769 26.3396 33.901C26.0456 34.027 25.7156 34.09 25.3496 34.09ZM23.9456 31.66C23.9456 31.96 24.0086 32.23 24.1346 32.47C24.2606 32.71 24.4286 32.899 24.6386 33.037C24.8486 33.175 25.0856 33.244 25.3496 33.244C25.6076 33.244 25.8416 33.175 26.0516 33.037C26.2676 32.893 26.4386 32.701 26.5646 32.461C26.6906 32.215 26.7536 31.945 26.7536 31.651C26.7536 31.351 26.6906 31.081 26.5646 30.841C26.4386 30.601 26.2676 30.412 26.0516 30.274C25.8416 30.13 25.6076 30.058 25.3496 30.058C25.0856 30.058 24.8486 30.13 24.6386 30.274C24.4286 30.418 24.2606 30.61 24.1346 30.85C24.0086 31.084 23.9456 31.354 23.9456 31.66Z" fill="#717171"/>
<path d="M11 1H17C22 1 24 3 24 8V14C24 19 22 21 17 21H11C6 21 4 19 4 14V8C4 3 6 1 11 1Z" stroke="#B0B0B0" stroke-width="1.5" stroke-linecap="round" stroke-linejoin="round"/>
<path d="M10.5701 14.27L17.11 7.72998" stroke="#B0B0B0" stroke-width="1.5" stroke-linecap="round" stroke-linejoin="round"/>
<path d="M10.98 9.37003C11.6593 9.37003 12.21 8.81936 12.21 8.14005C12.21 7.46073 11.6593 6.91003 10.98 6.91003C10.3007 6.91003 9.75 7.46073 9.75 8.14005C9.75 8.81936 10.3007 9.37003 10.98 9.37003Z" stroke="#B0B0B0" stroke-width="1.5" stroke-linecap="round" stroke-linejoin="round"/>
<path d="M17.52 15.09C18.1993 15.09 18.75 14.5393 18.75 13.86C18.75 13.1807 18.1993 12.63 17.52 12.63C16.8407 12.63 16.29 13.1807 16.29 13.86C16.29 14.5393 16.8407 15.09 17.52 15.09Z" stroke="#B0B0B0" stroke-width="1.5" stroke-linecap="round" stroke-linejoin="round"/>
</svg>
