<svg width="23" height="36" viewBox="0 0 23 36" fill="none" xmlns="http://www.w3.org/2000/svg">
<path d="M4.5 29.113C4.44 29.047 4.353 28.978 4.239 28.906C4.125 28.828 3.99 28.756 3.834 28.69C3.678 28.624 3.51 28.57 3.33 28.528C3.15 28.486 2.964 28.465 2.772 28.465C2.352 28.465 2.04 28.543 1.836 28.699C1.632 28.855 1.53 29.071 1.53 29.347C1.53 29.551 1.587 29.713 1.701 29.833C1.815 29.947 1.989 30.043 2.223 30.121C2.457 30.199 2.751 30.283 3.105 30.373C3.537 30.475 3.912 30.598 4.23 30.742C4.548 30.88 4.791 31.066 4.959 31.3C5.127 31.534 5.211 31.843 5.211 32.227C5.211 32.551 5.151 32.83 5.031 33.064C4.911 33.298 4.743 33.49 4.527 33.64C4.311 33.784 4.062 33.892 3.78 33.964C3.498 34.03 3.195 34.063 2.871 34.063C2.553 34.063 2.235 34.03 1.917 33.964C1.605 33.898 1.305 33.802 1.017 33.676C0.735 33.544 0.474 33.385 0.234 33.199L0.693 32.335C0.771 32.413 0.882 32.5 1.026 32.596C1.176 32.686 1.347 32.773 1.539 32.857C1.737 32.941 1.95 33.013 2.178 33.073C2.412 33.127 2.649 33.154 2.889 33.154C3.291 33.154 3.597 33.085 3.807 32.947C4.023 32.803 4.131 32.599 4.131 32.335C4.131 32.119 4.062 31.948 3.924 31.822C3.786 31.69 3.585 31.579 3.321 31.489C3.057 31.399 2.742 31.309 2.376 31.219C1.956 31.105 1.605 30.982 1.323 30.85C1.041 30.712 0.828 30.538 0.684 30.328C0.546 30.112 0.477 29.839 0.477 29.509C0.477 29.089 0.579 28.735 0.783 28.447C0.987 28.153 1.263 27.934 1.611 27.79C1.965 27.64 2.361 27.565 2.799 27.565C3.087 27.565 3.36 27.598 3.618 27.664C3.876 27.724 4.116 27.808 4.338 27.916C4.566 28.024 4.773 28.147 4.959 28.285L4.5 29.113ZM8.61827 33.757C8.53427 33.799 8.42927 33.844 8.30327 33.892C8.17727 33.94 8.03327 33.982 7.87127 34.018C7.71527 34.054 7.55327 34.072 7.38527 34.072C7.18127 34.072 6.99227 34.036 6.81827 33.964C6.64427 33.892 6.50327 33.778 6.39527 33.622C6.29327 33.46 6.24227 33.253 6.24227 33.001V30.058H5.62127V29.293H6.24227V27.745H7.23227V29.293H8.25827V30.058H7.23227V32.686C7.24427 32.848 7.29527 32.968 7.38527 33.046C7.48127 33.124 7.59827 33.163 7.73627 33.163C7.87427 33.163 8.00627 33.139 8.13227 33.091C8.25827 33.043 8.35127 33.004 8.41127 32.974L8.61827 33.757ZM11.3574 34.09C10.9854 34.09 10.6524 34.027 10.3584 33.901C10.0644 33.769 9.80944 33.589 9.59344 33.361C9.38344 33.133 9.22144 32.875 9.10744 32.587C8.99344 32.293 8.93644 31.981 8.93644 31.651C8.93644 31.321 8.99344 31.009 9.10744 30.715C9.22144 30.421 9.38344 30.163 9.59344 29.941C9.80944 29.713 10.0644 29.536 10.3584 29.41C10.6584 29.278 10.9914 29.212 11.3574 29.212C11.7234 29.212 12.0534 29.278 12.3474 29.41C12.6474 29.536 12.9024 29.713 13.1124 29.941C13.3284 30.163 13.4934 30.421 13.6074 30.715C13.7214 31.009 13.7784 31.321 13.7784 31.651C13.7784 31.981 13.7214 32.293 13.6074 32.587C13.4934 32.875 13.3284 33.133 13.1124 33.361C12.9024 33.589 12.6474 33.769 12.3474 33.901C12.0534 34.027 11.7234 34.09 11.3574 34.09ZM9.95344 31.66C9.95344 31.96 10.0164 32.23 10.1424 32.47C10.2684 32.71 10.4364 32.899 10.6464 33.037C10.8564 33.175 11.0934 33.244 11.3574 33.244C11.6154 33.244 11.8494 33.175 12.0594 33.037C12.2754 32.893 12.4464 32.701 12.5724 32.461C12.6984 32.215 12.7614 31.945 12.7614 31.651C12.7614 31.351 12.6984 31.081 12.5724 30.841C12.4464 30.601 12.2754 30.412 12.0594 30.274C11.8494 30.13 11.6154 30.058 11.3574 30.058C11.0934 30.058 10.8564 30.13 10.6464 30.274C10.4364 30.418 10.2684 30.61 10.1424 30.85C10.0164 31.084 9.95344 31.354 9.95344 31.66ZM17.3025 30.148C16.9185 30.154 16.5765 30.241 16.2765 30.409C15.9825 30.577 15.7725 30.814 15.6465 31.12V34H14.6565V29.293H15.5745V30.346C15.7365 30.022 15.9495 29.764 16.2135 29.572C16.4775 29.374 16.7565 29.266 17.0505 29.248C17.1105 29.248 17.1585 29.248 17.1945 29.248C17.2365 29.248 17.2725 29.251 17.3025 29.257V30.148ZM20.0678 34.09C19.7018 34.09 19.3688 34.027 19.0688 33.901C18.7748 33.769 18.5198 33.592 18.3038 33.37C18.0878 33.142 17.9198 32.884 17.7998 32.596C17.6858 32.302 17.6288 31.99 17.6288 31.66C17.6288 31.216 17.7308 30.811 17.9348 30.445C18.1388 30.073 18.4238 29.776 18.7898 29.554C19.1558 29.326 19.5848 29.212 20.0768 29.212C20.5688 29.212 20.9918 29.326 21.3458 29.554C21.7058 29.776 21.9848 30.07 22.1828 30.436C22.3808 30.802 22.4798 31.195 22.4798 31.615C22.4798 31.687 22.4768 31.756 22.4708 31.822C22.4648 31.882 22.4588 31.933 22.4528 31.975H18.6818C18.6998 32.251 18.7748 32.494 18.9068 32.704C19.0448 32.908 19.2188 33.07 19.4288 33.19C19.6388 33.304 19.8638 33.361 20.1038 33.361C20.3678 33.361 20.6168 33.295 20.8508 33.163C21.0908 33.031 21.2528 32.857 21.3368 32.641L22.1828 32.884C22.0808 33.112 21.9248 33.319 21.7148 33.505C21.5108 33.685 21.2678 33.829 20.9858 33.937C20.7038 34.039 20.3978 34.09 20.0678 34.09ZM18.6548 31.318H21.4988C21.4808 31.048 21.4028 30.811 21.2648 30.607C21.1328 30.397 20.9618 30.235 20.7518 30.121C20.5478 30.001 20.3198 29.941 20.0678 29.941C19.8218 29.941 19.5938 30.001 19.3838 30.121C19.1798 30.235 19.0118 30.397 18.8798 30.607C18.7478 30.811 18.6728 31.048 18.6548 31.318Z" fill="#717171"/>
<path d="M21 11V16C21 19 19 21 16 21H6C3 21 1 19 1 16V11C1 8.28 2.64 6.38 5.19 6.06C5.45 6.02 5.72 6 6 6H16C16.26 6 16.51 6.00999 16.75 6.04999C19.33 6.34999 21 8.26 21 11Z" stroke="#293881" stroke-width="1.5" stroke-linecap="round" stroke-linejoin="round"/>
<path d="M16.7514 6.05C16.5114 6.01 16.2614 6.00001 16.0014 6.00001H6.00141C5.72141 6.00001 5.45141 6.02001 5.19141 6.06001C5.33141 5.78001 5.53141 5.52001 5.77141 5.28001L9.02141 2.02C10.3914 0.66 12.6114 0.66 13.9814 2.02L15.7314 3.79002C16.3714 4.42002 16.7114 5.22 16.7514 6.05Z" stroke="#293881" stroke-width="1.5" stroke-linecap="round" stroke-linejoin="round"/>
<path d="M21 11.5H18C16.9 11.5 16 12.4 16 13.5C16 14.6 16.9 15.5 18 15.5H21" stroke="#293881" stroke-width="1.5" stroke-linecap="round" stroke-linejoin="round"/>
</svg>
