<svg width="312" height="16" viewBox="0 0 312 16" fill="none" xmlns="http://www.w3.org/2000/svg">
<path d="M145.326 3.06H146.152L150.282 13H149.246L147.958 9.892H143.492L142.218 13H141.168L145.326 3.06ZM147.734 9.122L145.732 4.208L143.702 9.122H147.734ZM154.792 12.65C154.736 12.678 154.652 12.7153 154.54 12.762C154.438 12.8087 154.316 12.8553 154.176 12.902C154.036 12.9487 153.878 12.9907 153.7 13.028C153.523 13.0653 153.336 13.084 153.14 13.084C152.935 13.084 152.739 13.056 152.552 13C152.366 12.944 152.202 12.86 152.062 12.748C151.922 12.6267 151.81 12.4773 151.726 12.3C151.642 12.1227 151.6 11.9173 151.6 11.684V6.462H150.592V5.706H151.6V3.242H152.552V5.706H154.232V6.462H152.552V11.418C152.571 11.6887 152.664 11.8893 152.832 12.02C153.01 12.1413 153.21 12.202 153.434 12.202C153.705 12.202 153.943 12.16 154.148 12.076C154.354 11.9827 154.484 11.9173 154.54 11.88L154.792 12.65ZM157.816 13.14C157.47 13.14 157.148 13.084 156.85 12.972C156.56 12.8507 156.304 12.6873 156.08 12.482C155.865 12.2767 155.697 12.0387 155.576 11.768C155.454 11.488 155.394 11.1893 155.394 10.872C155.394 10.5547 155.468 10.2607 155.618 9.99C155.767 9.71933 155.977 9.486 156.248 9.29C156.518 9.094 156.84 8.94467 157.214 8.842C157.587 8.73 157.998 8.674 158.446 8.674C158.819 8.674 159.197 8.70667 159.58 8.772C159.962 8.83733 160.303 8.93067 160.602 9.052V8.394C160.602 7.75 160.42 7.24133 160.056 6.868C159.692 6.48533 159.188 6.294 158.544 6.294C158.17 6.294 157.788 6.36867 157.396 6.518C157.004 6.66733 156.607 6.882 156.206 7.162L155.87 6.532C156.812 5.89733 157.727 5.58 158.614 5.58C159.528 5.58 160.247 5.83667 160.77 6.35C161.292 6.86333 161.554 7.57267 161.554 8.478V11.768C161.554 12.0293 161.67 12.16 161.904 12.16V13C161.745 13.028 161.624 13.042 161.54 13.042C161.297 13.042 161.106 12.9813 160.966 12.86C160.835 12.7387 160.765 12.5707 160.756 12.356L160.728 11.782C160.392 12.2207 159.967 12.5567 159.454 12.79C158.95 13.0233 158.404 13.14 157.816 13.14ZM158.04 12.412C158.534 12.412 158.987 12.3187 159.398 12.132C159.818 11.9453 160.135 11.698 160.35 11.39C160.434 11.306 160.494 11.2173 160.532 11.124C160.578 11.0213 160.602 10.928 160.602 10.844V9.654C160.284 9.53267 159.953 9.43933 159.608 9.374C159.272 9.30867 158.926 9.276 158.572 9.276C157.9 9.276 157.354 9.416 156.934 9.696C156.514 9.976 156.304 10.3447 156.304 10.802C156.304 11.026 156.346 11.236 156.43 11.432C156.523 11.628 156.644 11.8007 156.794 11.95C156.952 12.09 157.139 12.202 157.354 12.286C157.568 12.37 157.797 12.412 158.04 12.412ZM165.893 13.14C165.099 13.14 164.507 12.8787 164.115 12.356C163.732 11.824 163.541 11.0353 163.541 9.99V5.706H164.493V9.822C164.493 11.474 165.057 12.3 166.187 12.3C166.467 12.3 166.742 12.2533 167.013 12.16C167.283 12.0667 167.531 11.9313 167.755 11.754C167.988 11.5767 168.193 11.3667 168.371 11.124C168.557 10.8813 168.707 10.606 168.819 10.298V5.706H169.771V11.768C169.771 12.0293 169.883 12.16 170.107 12.16V13C169.995 13.0187 169.901 13.028 169.827 13.028C169.761 13.028 169.715 13.028 169.687 13.028C169.463 13.0187 169.281 12.9393 169.141 12.79C169.001 12.6407 168.931 12.44 168.931 12.188V11.348C168.613 11.9173 168.179 12.3607 167.629 12.678C167.087 12.986 166.509 13.14 165.893 13.14Z" fill="#B0B0B0"/>
<line x1="188" y1="7.5" x2="312" y2="7.50001" stroke="#E5E5E5"/>
<line y1="7.5" x2="124" y2="7.5" stroke="#E5E5E5"/>
</svg>
