<svg width="65" height="34" viewBox="0 0 65 34" fill="none" xmlns="http://www.w3.org/2000/svg">
<path d="M0 15C0 6.71573 6.71573 0 15 0H50C58.2843 0 65 6.71573 65 15V19C65 27.2843 58.2843 34 50 34H15C6.71573 34 0 27.2843 0 19V15Z" fill="#293881"/>
<path d="M17.8945 17.4648H18.4922C19.0508 17.4648 19.4688 17.3555 19.7461 17.1367C20.0234 16.9141 20.1621 16.5918 20.1621 16.1699C20.1621 15.7441 20.0449 15.4297 19.8105 15.2266C19.5801 15.0234 19.2168 14.9219 18.7207 14.9219H17.8945V17.4648ZM21.9961 16.1055C21.9961 17.0273 21.707 17.7324 21.1289 18.2207C20.5547 18.709 19.7363 18.9531 18.6738 18.9531H17.8945V22H16.0781V13.4336H18.8145C19.8535 13.4336 20.6426 13.6582 21.1816 14.1074C21.7246 14.5527 21.9961 15.2188 21.9961 16.1055ZM27.6328 22L27.2871 21.1094H27.2402C26.9395 21.4883 26.6289 21.752 26.3086 21.9004C25.9922 22.0449 25.5781 22.1172 25.0664 22.1172C24.4375 22.1172 23.9414 21.9375 23.5781 21.5781C23.2188 21.2188 23.0391 20.707 23.0391 20.043C23.0391 19.3477 23.2812 18.8359 23.7656 18.5078C24.2539 18.1758 24.9883 17.9922 25.9688 17.957L27.1055 17.9219V17.6348C27.1055 16.9707 26.7656 16.6387 26.0859 16.6387C25.5625 16.6387 24.9473 16.7969 24.2402 17.1133L23.6484 15.9062C24.4023 15.5117 25.2383 15.3145 26.1562 15.3145C27.0352 15.3145 27.709 15.5059 28.1777 15.8887C28.6465 16.2715 28.8809 16.8535 28.8809 17.6348V22H27.6328ZM27.1055 18.9648L26.4141 18.9883C25.8945 19.0039 25.5078 19.0977 25.2539 19.2695C25 19.4414 24.873 19.7031 24.873 20.0547C24.873 20.5586 25.1621 20.8105 25.7402 20.8105C26.1543 20.8105 26.4844 20.6914 26.7305 20.4531C26.9805 20.2148 27.1055 19.8984 27.1055 19.5039V18.9648ZM32.4434 18.4375L33.2227 17.4414L35.0566 15.4492H37.0723L34.4707 18.291L37.2305 22H35.168L33.2812 19.3457L32.5137 19.9609V22H30.7266V12.8828H32.5137V16.9492L32.4199 18.4375H32.4434ZM42.3281 22L41.9824 21.1094H41.9355C41.6348 21.4883 41.3242 21.752 41.0039 21.9004C40.6875 22.0449 40.2734 22.1172 39.7617 22.1172C39.1328 22.1172 38.6367 21.9375 38.2734 21.5781C37.9141 21.2188 37.7344 20.707 37.7344 20.043C37.7344 19.3477 37.9766 18.8359 38.4609 18.5078C38.9492 18.1758 39.6836 17.9922 40.6641 17.957L41.8008 17.9219V17.6348C41.8008 16.9707 41.4609 16.6387 40.7812 16.6387C40.2578 16.6387 39.6426 16.7969 38.9355 17.1133L38.3438 15.9062C39.0977 15.5117 39.9336 15.3145 40.8516 15.3145C41.7305 15.3145 42.4043 15.5059 42.873 15.8887C43.3418 16.2715 43.5762 16.8535 43.5762 17.6348V22H42.3281ZM41.8008 18.9648L41.1094 18.9883C40.5898 19.0039 40.2031 19.0977 39.9492 19.2695C39.6953 19.4414 39.5684 19.7031 39.5684 20.0547C39.5684 20.5586 39.8574 20.8105 40.4355 20.8105C40.8496 20.8105 41.1797 20.6914 41.4258 20.4531C41.6758 20.2148 41.8008 19.8984 41.8008 19.5039V18.9648ZM45.3457 13.7559C45.3457 13.1738 45.6699 12.8828 46.3184 12.8828C46.9668 12.8828 47.291 13.1738 47.291 13.7559C47.291 14.0332 47.209 14.25 47.0449 14.4062C46.8848 14.5586 46.6426 14.6348 46.3184 14.6348C45.6699 14.6348 45.3457 14.3418 45.3457 13.7559ZM47.209 22H45.4219V15.4492H47.209V22Z" fill="white"/>
</svg>
