<svg width="22" height="22" viewBox="0 0 22 22" fill="none" xmlns="http://www.w3.org/2000/svg">
<path d="M7.57007 14.27L14.11 7.72998" stroke="#293881" stroke-width="1.5" stroke-linecap="round" stroke-linejoin="round"/>
<path d="M7.98001 9.37C8.65932 9.37 9.20999 8.81932 9.20999 8.14001C9.20999 7.4607 8.65932 6.91 7.98001 6.91C7.3007 6.91 6.75 7.4607 6.75 8.14001C6.75 8.81932 7.3007 9.37 7.98001 9.37Z" stroke="#293881" stroke-width="1.5" stroke-linecap="round" stroke-linejoin="round"/>
<path d="M14.52 15.09C15.1993 15.09 15.75 14.5393 15.75 13.86C15.75 13.1807 15.1993 12.63 14.52 12.63C13.8407 12.63 13.29 13.1807 13.29 13.86C13.29 14.5393 13.8407 15.09 14.52 15.09Z" stroke="#293881" stroke-width="1.5" stroke-linecap="round" stroke-linejoin="round"/>
<path d="M11 21C16.5228 21 21 16.5228 21 11C21 5.47715 16.5228 1 11 1C5.47715 1 1 5.47715 1 11C1 16.5228 5.47715 21 11 21Z" stroke="#293881" stroke-width="1.5" stroke-linecap="round" stroke-linejoin="round"/>
</svg>
