<svg width="54" height="24" viewBox="0 0 54 24" fill="none" xmlns="http://www.w3.org/2000/svg">
<rect x="0.75" y="0.75" width="52.5" height="22.5" rx="11.25" stroke="#293881" stroke-width="1.5"/>
<path d="M22.804 14.548V16H16.888V7.48H22.696V8.932H18.544V10.984H22.132V12.328H18.544V14.548H22.804ZM26.2501 16.12C25.8181 16.12 25.4181 16.036 25.0501 15.868C24.6821 15.7 24.3661 15.468 24.1021 15.172C23.8381 14.876 23.6301 14.532 23.4781 14.14C23.3341 13.74 23.2621 13.312 23.2621 12.856C23.2621 12.4 23.3301 11.976 23.4661 11.584C23.6101 11.192 23.8061 10.848 24.0541 10.552C24.3021 10.256 24.5981 10.024 24.9421 9.856C25.2861 9.688 25.6621 9.604 26.0701 9.604C26.5341 9.604 26.9501 9.716 27.3181 9.94C27.6941 10.164 27.9861 10.456 28.1941 10.816V7.24H29.8021V14.152C29.8021 14.32 29.8301 14.44 29.8861 14.512C29.9421 14.584 30.0381 14.624 30.1741 14.632V16C29.8941 16.056 29.6661 16.084 29.4901 16.084C29.2021 16.084 28.9661 16.012 28.7821 15.868C28.5981 15.724 28.4941 15.536 28.4701 15.304L28.4341 14.908C28.2021 15.308 27.8861 15.612 27.4861 15.82C27.0941 16.02 26.6821 16.12 26.2501 16.12ZM26.6701 14.752C26.8221 14.752 26.9781 14.728 27.1381 14.68C27.2981 14.624 27.4461 14.548 27.5821 14.452C27.7181 14.356 27.8381 14.244 27.9421 14.116C28.0541 13.988 28.1381 13.848 28.1941 13.696V12.196C28.1301 12.02 28.0381 11.86 27.9181 11.716C27.8061 11.564 27.6741 11.436 27.5221 11.332C27.3781 11.22 27.2221 11.132 27.0541 11.068C26.8941 11.004 26.7341 10.972 26.5741 10.972C26.3341 10.972 26.1101 11.024 25.9021 11.128C25.7021 11.232 25.5301 11.376 25.3861 11.56C25.2421 11.736 25.1301 11.94 25.0501 12.172C24.9701 12.404 24.9301 12.644 24.9301 12.892C24.9301 13.156 24.9741 13.4 25.0621 13.624C25.1501 13.848 25.2701 14.044 25.4221 14.212C25.5741 14.38 25.7541 14.512 25.9621 14.608C26.1781 14.704 26.4141 14.752 26.6701 14.752ZM31.3804 16V9.712H32.9884V16H31.3804ZM31.3804 8.836V7.24H32.9884V8.836H31.3804ZM38.207 15.676C37.991 15.772 37.727 15.868 37.415 15.964C37.103 16.06 36.775 16.108 36.431 16.108C36.207 16.108 35.995 16.08 35.795 16.024C35.603 15.968 35.431 15.88 35.279 15.76C35.135 15.632 35.019 15.472 34.931 15.28C34.843 15.08 34.799 14.84 34.799 14.56V10.948H33.971V9.712H34.799V7.672H36.407V9.712H37.727V10.948H36.407V14.02C36.407 14.244 36.463 14.404 36.575 14.5C36.695 14.588 36.839 14.632 37.007 14.632C37.175 14.632 37.339 14.604 37.499 14.548C37.659 14.492 37.787 14.444 37.883 14.404L38.207 15.676Z" fill="#293881"/>
</svg>
