<svg width="31" height="31" viewBox="0 0 31 31" fill="none" xmlns="http://www.w3.org/2000/svg">
<path d="M16.5461 16.9191C16.2405 17.027 15.7371 17.027 15.4315 16.9191C12.8247 16.0292 7 12.3169 7 6.02472C7 3.24719 9.2382 1 11.9978 1C13.6337 1 15.0809 1.79101 15.9888 3.01348C16.8966 1.79101 18.3528 1 19.9798 1C22.7393 1 24.9775 3.24719 24.9775 6.02472C24.9775 12.3169 19.1528 16.0292 16.5461 16.9191Z" stroke="white" stroke-width="1.5" stroke-linecap="round" stroke-linejoin="round"/>
<path d="M1.44922 28.9H0.785156V23.1891H3.96875V23.7789H1.44922V25.8688H3.81641V26.4586H1.44922V28.9ZM7.45312 28.9L7.32422 28.2906H7.29297C7.07943 28.5589 6.86589 28.7412 6.65234 28.8375C6.44141 28.9313 6.17708 28.9781 5.85938 28.9781C5.4349 28.9781 5.10156 28.8688 4.85938 28.65C4.61979 28.4313 4.5 28.1201 4.5 27.7164C4.5 26.8518 5.19141 26.3987 6.57422 26.3571L7.30078 26.3336V26.068C7.30078 25.7321 7.22786 25.4847 7.08203 25.3258C6.9388 25.1643 6.70833 25.0836 6.39062 25.0836C6.03385 25.0836 5.63021 25.193 5.17969 25.4117L4.98047 24.9156C5.19141 24.8011 5.42188 24.7112 5.67188 24.6461C5.92448 24.581 6.17708 24.5485 6.42969 24.5485C6.9401 24.5485 7.31771 24.6617 7.5625 24.8883C7.8099 25.1149 7.93359 25.4781 7.93359 25.9781V28.9H7.45312ZM5.98828 28.443C6.39193 28.443 6.70833 28.3323 6.9375 28.111C7.16927 27.8896 7.28516 27.5797 7.28516 27.1813V26.7946L6.63672 26.8219C6.12109 26.8401 5.7487 26.9209 5.51953 27.0641C5.29297 27.2047 5.17969 27.4248 5.17969 27.7242C5.17969 27.9586 5.25 28.137 5.39062 28.2594C5.53385 28.3818 5.73307 28.443 5.98828 28.443ZM10.2109 28.9L8.58594 24.6188H9.28125L10.2031 27.1578C10.4115 27.7516 10.5339 28.137 10.5703 28.3141H10.6016C10.6302 28.1761 10.7201 27.8909 10.8711 27.4586C11.0247 27.0237 11.3672 26.0771 11.8984 24.6188H12.5938L10.9688 28.9H10.2109ZM16.9766 26.7555C16.9766 27.4534 16.8008 27.999 16.4492 28.3922C16.0977 28.7828 15.612 28.9781 14.9922 28.9781C14.6094 28.9781 14.2695 28.8883 13.9727 28.7086C13.6758 28.5289 13.4466 28.2711 13.2852 27.9352C13.1237 27.5992 13.043 27.206 13.043 26.7555C13.043 26.0576 13.2174 25.5146 13.5664 25.1266C13.9154 24.736 14.3997 24.5406 15.0195 24.5406C15.6185 24.5406 16.0938 24.7399 16.4453 25.1383C16.7995 25.5367 16.9766 26.0758 16.9766 26.7555ZM13.7148 26.7555C13.7148 27.3024 13.8242 27.719 14.043 28.0055C14.2617 28.292 14.5833 28.4352 15.0078 28.4352C15.4323 28.4352 15.7539 28.2933 15.9727 28.0094C16.194 27.7229 16.3047 27.305 16.3047 26.7555C16.3047 26.2112 16.194 25.7985 15.9727 25.5172C15.7539 25.2334 15.4297 25.0914 15 25.0914C14.5755 25.0914 14.2552 25.2308 14.0391 25.5094C13.8229 25.788 13.7148 26.2034 13.7148 26.7555ZM20.0703 24.5406C20.2604 24.5406 20.431 24.5563 20.582 24.5875L20.4922 25.1891C20.3151 25.15 20.1589 25.1305 20.0234 25.1305C19.6771 25.1305 19.3802 25.2711 19.1328 25.5524C18.888 25.8336 18.7656 26.1839 18.7656 26.6031V28.9H18.1172V24.6188H18.6523L18.7266 25.4117H18.7578C18.9167 25.1331 19.1081 24.9183 19.332 24.7672C19.556 24.6162 19.8021 24.5406 20.0703 24.5406ZM22.0312 28.9H21.3828V24.6188H22.0312V28.9ZM21.3281 23.4586C21.3281 23.3102 21.3646 23.2021 21.4375 23.1344C21.5104 23.0641 21.6016 23.0289 21.7109 23.0289C21.8151 23.0289 21.9049 23.0641 21.9805 23.1344C22.056 23.2047 22.0938 23.3128 22.0938 23.4586C22.0938 23.6045 22.056 23.7138 21.9805 23.7867C21.9049 23.8571 21.8151 23.8922 21.7109 23.8922C21.6016 23.8922 21.5104 23.8571 21.4375 23.7867C21.3646 23.7138 21.3281 23.6045 21.3281 23.4586ZM24.7891 28.443C24.9036 28.443 25.0143 28.4352 25.1211 28.4196C25.2279 28.4013 25.3125 28.3831 25.375 28.3649V28.861C25.3047 28.8948 25.2005 28.9222 25.0625 28.943C24.9271 28.9664 24.8047 28.9781 24.6953 28.9781C23.8672 28.9781 23.4531 28.542 23.4531 27.6696V25.1227H22.8398V24.8102L23.4531 24.5406L23.7266 23.6266H24.1016V24.6188H25.3438V25.1227H24.1016V27.6422C24.1016 27.9 24.1628 28.0979 24.2852 28.236C24.4076 28.374 24.5755 28.443 24.7891 28.443ZM28.043 28.9781C27.4102 28.9781 26.9102 28.7854 26.543 28.4C26.1784 28.0146 25.9961 27.4795 25.9961 26.7946C25.9961 26.1045 26.1654 25.5563 26.5039 25.15C26.8451 24.7438 27.3021 24.5406 27.875 24.5406C28.4115 24.5406 28.8359 24.7177 29.1484 25.0719C29.4609 25.4235 29.6172 25.8883 29.6172 26.4664V26.8766H26.668C26.681 27.3792 26.8073 27.7607 27.0469 28.0211C27.2891 28.2815 27.6289 28.4117 28.0664 28.4117C28.5273 28.4117 28.9831 28.3154 29.4336 28.1227V28.7008C29.2044 28.7998 28.987 28.8701 28.7812 28.9117C28.5781 28.956 28.332 28.9781 28.043 28.9781ZM27.8672 25.0836C27.5234 25.0836 27.2487 25.1956 27.043 25.4196C26.8398 25.6435 26.7201 25.9534 26.6836 26.3492H28.9219C28.9219 25.9404 28.8307 25.6279 28.6484 25.4117C28.4661 25.193 28.2057 25.0836 27.8672 25.0836Z" fill="white"/>
</svg>
