<svg width="600" height="600" viewBox="0 0 600 600" fill="none" xmlns="http://www.w3.org/2000/svg">
<g opacity="0.8">
<rect width="600" height="600" rx="100" fill="#293881"/>
<path d="M172.447 252.932C172.311 253.478 172.037 253.615 171.764 253.615C171.491 253.615 171.081 253.342 170.945 252.932L149.638 193.109C147.863 186.417 142.263 181.5 135.707 181.5C127.239 181.5 120 188.739 120 197.617V275.468C120 280.794 124.917 285.028 130.38 285.028C135.707 285.028 140.077 280.248 140.077 274.648V216.601C140.077 216.328 140.214 216.192 140.624 216.192C141.033 216.192 141.17 216.465 141.443 217.148C141.99 218.65 161.794 277.517 161.794 277.517C163.16 282.024 167.12 285.028 172.037 285.028C176.408 285.028 180.232 282.024 181.598 277.517C181.598 277.517 203.178 219.06 203.724 217.557C203.724 217.557 203.997 216.601 204.407 216.601C204.544 216.601 204.68 216.738 204.68 217.148V276.014C204.68 281.068 208.641 285.028 213.558 285.028C219.021 285.028 223.938 280.248 223.938 275.468V197.617C223.938 188.739 216.699 181.5 208.231 181.5C201.675 181.5 195.529 186.417 193.754 193.109L172.447 252.932Z" fill="white"/>
<path d="M253.033 222.93V326.686C253.033 332.149 257.404 336.246 262.867 336.246C268.33 336.246 272.564 332.149 272.564 326.686V222.93C272.564 217.466 268.33 213.369 262.867 213.369C257.404 213.369 253.033 217.466 253.033 222.93Z" fill="white"/>
<path d="M314.336 181.5C307.78 181.5 301.77 187.373 301.77 193.929V275.468C301.77 280.931 306.277 285.028 311.741 285.028C317.204 285.028 321.301 281.068 321.301 275.604V221.245C321.301 220.289 321.984 219.606 322.804 219.606C323.213 219.606 323.623 219.879 324.17 220.699L359.407 278.336C361.183 281.068 364.598 285.028 370.744 285.028C377.3 285.028 383.309 279.155 383.309 272.6V191.061C383.309 185.597 378.802 181.5 373.339 181.5C367.875 181.5 363.778 185.461 363.778 190.924V245.283C363.778 246.239 363.095 246.922 362.276 246.922C361.866 246.922 361.456 246.649 360.91 245.83L325.672 188.192C323.896 185.461 320.482 181.5 314.336 181.5Z" fill="white"/>
<path d="M412.392 255.39C412.392 272.873 429.192 285.165 446.538 285.165C463.883 285.165 480 272.873 480 255.39V191.061C480 185.597 475.766 181.5 470.303 181.5C464.84 181.5 460.469 185.597 460.469 191.061V253.205C460.469 260.034 453.913 265.634 446.538 265.634C439.982 265.634 431.923 260.58 431.923 252.659V191.061C431.923 185.597 427.689 181.5 422.226 181.5C416.763 181.5 412.392 185.597 412.392 191.061V255.39Z" fill="white"/>
<path d="M172.447 384.96C172.311 385.507 172.037 385.643 171.764 385.643C171.491 385.643 171.081 385.37 170.945 384.96L149.638 325.138C147.863 318.445 142.263 313.528 135.707 313.528C127.239 313.528 120 320.767 120 329.645V407.496C120 412.823 124.917 417.057 130.38 417.057C135.707 417.057 140.077 412.277 140.077 406.677V348.63C140.077 348.357 140.214 348.22 140.624 348.22C141.033 348.22 141.17 348.493 141.443 349.176C141.99 350.678 161.794 409.545 161.794 409.545C163.16 414.052 167.12 417.057 172.037 417.057C176.408 417.057 180.232 414.052 181.598 409.545C181.598 409.545 203.178 351.088 203.724 349.586C203.724 349.586 203.997 348.63 204.407 348.63C204.544 348.63 204.68 348.766 204.68 349.176V408.043C204.68 413.096 208.641 417.057 213.558 417.057C219.021 417.057 223.938 412.277 223.938 407.496V329.645C223.938 320.767 216.699 313.528 208.231 313.528C201.675 313.528 195.529 318.445 193.754 325.138L172.447 384.96Z" fill="white"/>
<path d="M253.033 323.089V407.496C253.033 412.959 257.404 417.057 262.867 417.057C268.33 417.057 272.564 412.959 272.564 407.496V323.089C272.564 317.626 268.33 313.528 262.867 313.528C257.404 313.528 253.033 317.626 253.033 323.089Z" fill="white"/>
<path d="M314.336 313.528C307.78 313.528 301.77 319.401 301.77 325.957V407.496C301.77 412.959 306.277 417.057 311.741 417.057C317.204 417.057 321.301 413.096 321.301 407.633V353.273C321.301 352.317 321.984 351.635 322.804 351.635C323.213 351.635 323.623 351.908 324.17 352.727L359.407 410.364C361.183 413.096 364.598 417.057 370.744 417.057C377.3 417.057 383.309 411.184 383.309 404.628V323.089C383.309 317.626 378.802 313.528 373.339 313.528C367.875 313.528 363.778 317.489 363.778 322.952V377.312C363.778 378.268 363.095 378.951 362.276 378.951C361.866 378.951 361.456 378.678 360.91 377.858L325.672 320.221C323.896 317.489 320.482 313.528 314.336 313.528Z" fill="white"/>
<path d="M434.655 408.043C434.655 413.642 439.026 417.057 444.489 417.057C449.952 417.057 454.186 413.642 454.186 408.043V334.289L455.006 333.606H467.571C472.351 333.606 477.132 328.825 477.132 324.182C477.132 318.718 472.351 314.075 467.571 314.075H421.407C416.626 314.075 411.983 318.718 411.983 324.182C411.983 328.825 416.626 333.606 421.407 333.606H433.972C434.655 333.606 434.655 334.289 434.655 334.289V408.043Z" fill="white"/>
<path d="M272.699 191.72C272.699 197.063 268.367 201.395 263.024 201.395C257.681 201.395 253.35 197.063 253.35 191.72C253.35 186.377 257.681 182.046 263.024 182.046C268.367 182.046 272.699 186.377 272.699 191.72Z" fill="white"/>
</g>
</svg>
