<svg width="38" height="40" viewBox="0 0 38 40" fill="none" xmlns="http://www.w3.org/2000/svg">
<path fill-rule="evenodd" clip-rule="evenodd" d="M37.9313 20.4543C37.9313 19.0361 37.8082 17.6725 37.5795 16.3634H19.3527V24.0998H29.768C29.3194 26.5998 27.9559 28.7179 25.9062 30.1361V35.1543H32.1607C35.8201 31.6725 37.9313 26.5452 37.9313 20.4543Z" fill="#4285F4"/>
<path fill-rule="evenodd" clip-rule="evenodd" d="M19.352 40C24.5772 40 28.958 38.2091 32.16 35.1546L25.9055 30.1364C24.1726 31.3364 21.9558 32.0455 19.352 32.0455C14.3115 32.0455 10.0451 28.5273 8.52323 23.8H2.05765V28.9819C5.24206 35.5182 11.7868 40 19.352 40Z" fill="#34A853"/>
<path fill-rule="evenodd" clip-rule="evenodd" d="M8.52402 23.7999C8.13696 22.5999 7.91704 21.3181 7.91704 19.9999C7.91704 18.6817 8.13696 17.3999 8.52402 16.1999V11.0181H2.05843C0.747721 13.7181 0 16.7726 0 19.9999C0 23.2272 0.747721 26.2817 2.05843 28.9817L8.52402 23.7999Z" fill="#FBBC05"/>
<path fill-rule="evenodd" clip-rule="evenodd" d="M19.352 7.95455C22.1933 7.95455 24.7443 8.96364 26.75 10.9455L32.3007 5.20909C28.9492 1.98182 24.5684 0 19.352 0C11.7868 0 5.24203 4.48182 2.05762 11.0182L8.5232 16.2C10.045 11.4727 14.3114 7.95455 19.352 7.95455Z" fill="#EA4335"/>
</svg>
