<svg width="80" height="80" viewBox="0 0 80 80" fill="none" xmlns="http://www.w3.org/2000/svg">
<path fill-rule="evenodd" clip-rule="evenodd" d="M25.9122 0.020989C14.058 0.227599 8.85782 1.52619 5.18704 5.19668C2.50003 7.88335 1.12983 11.3857 0.487624 17.2091C0.0370704 21.2944 0 23.0299 0 40.0422C0 55.2057 0.0226871 56.9594 0.262755 60.3547C0.781222 67.6877 2.18619 71.813 5.18704 74.8135C7.87398 77.5002 11.3767 78.8703 17.2007 79.5124C21.2864 79.9629 23.0221 80 40.036 80C55.2011 80 56.955 79.9773 60.3506 79.7373C67.6843 79.2189 71.8101 77.814 74.8109 74.8135C77.4979 72.1268 78.8681 68.6245 79.5103 62.8011C79.9609 58.7157 79.9979 56.9803 79.9979 39.968C79.9979 22.9166 79.9667 21.4582 79.5106 17.2091C78.8008 10.5966 76.9602 6.62011 73.3736 3.95117C70.0754 1.49683 66.1461 0.546446 57.4962 0.110839C56.0569 0.0383362 29.285 -0.0378729 25.9122 0.020989ZM19.0025 24.5607C19.1941 24.6786 19.4528 24.9268 19.5777 25.1124C19.7241 25.33 20.3267 26.9201 21.2768 29.5953C22.0865 31.8753 22.7826 33.7846 22.8237 33.8382C22.8853 33.9185 22.9077 33.9185 22.9515 33.8382C22.9808 33.7846 23.6435 31.9394 24.4244 29.7376C25.2052 27.5359 25.8979 25.609 25.9638 25.4558C26.1249 25.0811 26.6894 24.5665 27.1196 24.4022C27.7454 24.1632 28.5563 24.3362 29.1494 24.8351C29.2689 24.9356 29.4651 25.1958 29.5856 25.4132L29.8046 25.8086V31.5226V37.2366L29.5964 37.5095C29.0073 38.2819 27.897 38.2689 27.4361 37.4843C27.2887 37.2335 27.2826 37.0925 27.2467 33.1107L27.2097 28.9963L27.0364 29.4411C26.9411 29.6857 26.2797 31.4705 25.5666 33.4072C24.8536 35.344 24.1934 37.0984 24.0998 37.306C23.8816 37.7894 23.5624 38.0203 23.0544 38.0624C22.5406 38.105 22.1948 37.9808 21.8907 37.6443C21.6447 37.3721 21.3645 36.5849 18.9055 29.2599C18.8583 29.1195 18.7808 28.9916 18.7331 28.9758C18.6677 28.954 18.6464 29.9378 18.6464 32.9885C18.6464 35.6638 18.6197 37.1006 18.5675 37.2388C18.4709 37.4945 18.1589 37.8326 17.8902 37.973C17.6533 38.0967 17.1101 38.1098 16.8162 37.9987C16.5322 37.8915 16.2029 37.5716 16.0794 37.2831C15.9958 37.0876 15.9773 36.0517 15.9773 31.5571C15.9773 26.319 15.9839 26.0525 16.1201 25.6938C16.1987 25.487 16.3481 25.2063 16.4522 25.0699C17.0298 24.3127 18.2149 24.0761 19.0025 24.5607ZM42.631 24.465C42.8348 24.5612 43.0738 24.7193 43.162 24.8165C43.2502 24.9136 44.4123 26.7778 45.7446 28.9592C47.0768 31.1406 48.196 32.9556 48.2316 32.9927C48.2703 33.0327 48.342 33.0222 48.4089 32.9666C48.5063 32.8858 48.5241 32.3502 48.5418 28.9571C48.5617 25.1337 48.5659 25.0361 48.7151 24.8362C48.9669 24.4991 49.2345 24.3443 49.6309 24.3062C50.0608 24.2649 50.3911 24.3716 50.7029 24.6527C51.1342 25.0416 51.1201 24.825 51.1201 31.0235C51.1201 37.3174 51.1409 37.028 50.65 37.5467C50.2973 37.9192 49.9335 38.0778 49.4363 38.076C48.9152 38.074 48.4934 37.8964 48.1909 37.5516C48.0689 37.4125 46.8848 35.5227 45.5595 33.3519C43.9562 30.7257 43.1092 29.405 43.0281 29.4046C42.9611 29.4042 42.8861 29.4568 42.8613 29.5213C42.8366 29.5858 42.8163 31.3385 42.8163 33.4163C42.8163 37.0561 42.8109 37.2046 42.6671 37.4865C42.2382 38.3271 40.8015 38.2653 40.3768 37.388C40.2232 37.0707 40.2214 37.0025 40.2214 31.3798C40.2214 25.2058 40.2048 25.4687 40.6294 24.9121C40.8769 24.5875 41.4979 24.2886 41.9226 24.2896C42.1218 24.29 42.4123 24.362 42.631 24.465ZM56.9332 24.4568C57.2908 24.6613 57.4856 24.9164 57.5735 25.2953C57.6106 25.4553 57.6417 27.5138 57.6427 29.8697C57.6441 33.3061 57.6643 34.201 57.7451 34.3941C57.8902 34.7413 58.2882 35.1097 58.7433 35.318C59.4428 35.6383 60.3823 35.4769 60.9141 34.9453C61.4119 34.4475 61.3848 34.7248 61.4257 29.7006C61.4615 25.2949 61.4678 25.1326 61.6127 24.8819C61.7981 24.5611 62.3098 24.2888 62.7272 24.2888C63.1909 24.2888 63.6533 24.5627 63.8538 24.9565L64.0206 25.284L64.0197 29.9572C64.0187 35.021 64.0212 34.9854 63.6041 35.8439C63.3665 36.3327 62.5903 37.1413 62.0647 37.4475C60.149 38.5633 57.7084 38.2725 56.1548 36.7432C55.524 36.1224 55.1922 35.5306 55.0558 34.7836C55.0038 34.4991 54.9754 32.763 54.9754 29.8699C54.9754 25.0431 54.971 25.1007 55.3682 24.6696C55.7404 24.2655 56.4337 24.1712 56.9332 24.4568ZM35.5726 24.4631C35.8972 24.5988 36.2738 25.0436 36.3336 25.3622C36.5135 26.3213 35.6331 27.1613 34.7312 26.8911C33.7723 26.6039 33.4564 25.4981 34.128 24.7802C34.5013 24.3811 35.075 24.2552 35.5726 24.4631ZM35.4358 28.5966C35.597 28.6413 35.8354 28.7845 35.9657 28.9147C36.096 29.045 36.2391 29.2834 36.2838 29.4446C36.3414 29.652 36.3649 33.3754 36.364 42.192C36.3629 54.1425 36.3572 54.6584 36.2259 54.9429C35.8997 55.6497 35.1885 55.9093 34.4755 55.5819C34.112 55.415 33.9362 55.2246 33.8044 54.8552C33.6639 54.4613 33.6469 29.9219 33.7869 29.455C33.9403 28.9431 34.4561 28.5443 34.9945 28.5215C35.076 28.5181 35.2746 28.5519 35.4358 28.5966ZM18.8304 42.0879C19.1976 42.2605 19.6337 42.7025 19.7958 43.0663C19.854 43.197 20.5506 45.1333 21.3439 47.369C22.137 49.6048 22.806 51.454 22.8305 51.4785C22.8549 51.5029 22.9032 51.4918 22.9378 51.4537C22.9724 51.4157 23.664 49.5164 24.4748 47.2331C25.4069 44.608 26.0307 42.9597 26.1715 42.7502C26.5143 42.2399 27.001 41.9774 27.667 41.9438C28.1409 41.9199 28.266 41.9423 28.6168 42.1139C28.8391 42.2226 29.153 42.4616 29.3145 42.6451C29.8624 43.2675 29.8417 43.0107 29.8417 49.1767C29.8417 54.5611 29.8382 54.6962 29.6919 54.9829C29.3655 55.6227 28.4779 55.9045 27.8811 55.5576C27.7202 55.4641 27.52 55.2709 27.4362 55.1282C27.2886 54.877 27.2826 54.7377 27.2467 50.7174L27.2097 46.5659L25.6527 50.7901C24.0129 55.2393 23.9372 55.4024 23.4135 55.6212C22.8938 55.8383 22.194 55.6603 21.8199 55.2157C21.6893 55.0605 21.4272 54.3868 21.0154 53.148C19.6912 49.1643 18.774 46.5288 18.7117 46.5288C18.6749 46.5288 18.6457 48.2967 18.6448 50.5876C18.6433 54.3752 18.634 54.6662 18.5063 54.9429C18.3479 55.286 18.1043 55.5299 17.8075 55.6422C17.2781 55.8428 16.5881 55.6324 16.2282 55.1607L16.0144 54.8803V49.1663V43.4523L16.2136 43.0749C16.4415 42.6429 16.8337 42.2708 17.27 42.0727C17.6929 41.8807 18.404 41.8876 18.8304 42.0879ZM42.631 42.0734C42.7941 42.1491 43.0313 42.3235 43.1582 42.461C43.285 42.5985 44.4471 44.4457 45.7407 46.5659C47.0341 48.6861 48.1372 50.4671 48.1918 50.5236C48.2465 50.5801 48.3439 50.6062 48.4082 50.5815C48.5126 50.5414 48.5252 50.1216 48.5252 46.6533V42.77L48.6937 42.5198C48.9692 42.1111 49.2999 41.9324 49.778 41.9337C50.3054 41.9353 50.7208 42.1587 50.9505 42.5642L51.1176 42.8592L51.1173 48.6045C51.1168 54.2287 51.1136 54.3569 50.9656 54.6835C50.8824 54.867 50.7413 55.0966 50.6521 55.1937C50.4067 55.4609 49.7968 55.7198 49.4108 55.7206C48.9538 55.7216 48.3489 55.4132 48.0802 55.0422C47.9652 54.8836 46.8293 53.0449 45.5559 50.9564C44.2824 48.8678 43.1931 47.1089 43.1351 47.0477C43.0417 46.9492 43.0175 46.953 42.923 47.0804C42.8334 47.2013 42.8163 47.8383 42.8163 51.0541V54.8839L42.6495 55.129C42.3902 55.5099 42.125 55.6679 41.6831 55.7046C41.0815 55.7545 40.4999 55.4087 40.3005 54.8825C40.247 54.7412 40.2216 52.8374 40.2221 48.9889L40.2229 43.304L40.3981 42.9334C40.5997 42.5071 40.888 42.2116 41.2594 42.0507C41.6194 41.8948 42.2692 41.9056 42.631 42.0734ZM62.9884 42.1753C63.7185 42.6672 63.8438 43.5806 63.2611 44.1632C62.8836 44.5407 62.6507 44.6014 61.5782 44.6014H60.614L60.5935 49.7351C60.5736 54.7337 60.5691 54.8756 60.423 55.1283C59.9537 55.9403 58.5313 55.8965 58.1079 55.057L57.941 54.7262V49.6638V44.6014H56.9735C55.9537 44.6014 55.7362 44.5478 55.3576 44.2035C54.774 43.6728 54.8709 42.6552 55.5489 42.1945L55.8254 42.0067H59.2818H62.7382L62.9884 42.1753Z" fill="#293881"/>
</svg>
