<svg width="74" height="22" viewBox="0 0 74 22" fill="none" xmlns="http://www.w3.org/2000/svg">
<path d="M32.036 16V6.06H33.968V14.306H39.036V16H32.036ZM43.117 16.14C42.5197 16.14 41.983 16.0373 41.507 15.832C41.031 15.6267 40.625 15.3513 40.289 15.006C39.9623 14.6513 39.7103 14.2453 39.533 13.788C39.3557 13.3307 39.267 12.85 39.267 12.346C39.267 11.8327 39.3557 11.3473 39.533 10.89C39.7103 10.4327 39.9623 10.0313 40.289 9.686C40.625 9.33133 41.031 9.05133 41.507 8.846C41.983 8.64067 42.5197 8.538 43.117 8.538C43.7143 8.538 44.2463 8.64067 44.713 8.846C45.189 9.05133 45.5903 9.33133 45.917 9.686C46.253 10.0313 46.5097 10.4327 46.687 10.89C46.8643 11.3473 46.953 11.8327 46.953 12.346C46.953 12.85 46.8643 13.3307 46.687 13.788C46.5097 14.2453 46.2577 14.6513 45.931 15.006C45.6043 15.3513 45.203 15.6267 44.727 15.832C44.251 16.0373 43.7143 16.14 43.117 16.14ZM41.199 12.346C41.199 12.6727 41.2457 12.9713 41.339 13.242C41.4417 13.5033 41.577 13.732 41.745 13.928C41.9223 14.124 42.1277 14.278 42.361 14.39C42.5943 14.4927 42.8463 14.544 43.117 14.544C43.3877 14.544 43.6397 14.4927 43.873 14.39C44.1063 14.278 44.307 14.124 44.475 13.928C44.6523 13.732 44.7877 13.4987 44.881 13.228C44.9837 12.9573 45.035 12.6587 45.035 12.332C45.035 12.0147 44.9837 11.7207 44.881 11.45C44.7877 11.1793 44.6523 10.946 44.475 10.75C44.307 10.554 44.1063 10.4047 43.873 10.302C43.6397 10.19 43.3877 10.134 43.117 10.134C42.8463 10.134 42.5943 10.19 42.361 10.302C42.1277 10.414 41.9223 10.568 41.745 10.764C41.577 10.96 41.4417 11.1933 41.339 11.464C41.2457 11.7347 41.199 12.0287 41.199 12.346ZM53.2312 16L51.1032 12.822L50.0952 13.816V16H48.2192V5.78H50.0952V11.982L53.0352 8.678H55.0372L52.3072 11.786L55.2332 16H53.2312ZM57.9322 16.14C57.5775 16.14 57.2462 16.084 56.9382 15.972C56.6302 15.8507 56.3642 15.6873 56.1402 15.482C55.9162 15.2673 55.7388 15.02 55.6082 14.74C55.4868 14.46 55.4262 14.152 55.4262 13.816C55.4262 13.4707 55.5008 13.1533 55.6502 12.864C55.8088 12.5653 56.0235 12.3133 56.2942 12.108C56.5742 11.9027 56.9055 11.744 57.2882 11.632C57.6708 11.5107 58.0908 11.45 58.5482 11.45C58.8748 11.45 59.1922 11.478 59.5002 11.534C59.8175 11.59 60.0975 11.6693 60.3402 11.772V11.352C60.3402 10.8667 60.2002 10.4933 59.9202 10.232C59.6495 9.97067 59.2435 9.84 58.7022 9.84C58.3102 9.84 57.9275 9.91 57.5542 10.05C57.1808 10.19 56.7982 10.3953 56.4062 10.666L55.8322 9.476C56.7748 8.85067 57.7922 8.538 58.8842 8.538C59.9388 8.538 60.7555 8.79933 61.3342 9.322C61.9222 9.83533 62.2162 10.582 62.2162 11.562V13.844C62.2162 14.04 62.2488 14.18 62.3142 14.264C62.3888 14.348 62.5055 14.3947 62.6642 14.404V16C62.3468 16.0653 62.0715 16.098 61.8382 16.098C61.4835 16.098 61.2082 16.0187 61.0122 15.86C60.8255 15.7013 60.7088 15.4913 60.6622 15.23L60.6202 14.824C60.2935 15.2533 59.8968 15.58 59.4302 15.804C58.9635 16.028 58.4642 16.14 57.9322 16.14ZM58.4642 14.768C58.7815 14.768 59.0802 14.712 59.3602 14.6C59.6495 14.488 59.8735 14.3387 60.0322 14.152C60.2375 13.9933 60.3402 13.816 60.3402 13.62V12.78C60.1162 12.696 59.8735 12.6307 59.6122 12.584C59.3508 12.528 59.0988 12.5 58.8562 12.5C58.3708 12.5 57.9742 12.612 57.6662 12.836C57.3582 13.0507 57.2042 13.326 57.2042 13.662C57.2042 13.9793 57.3255 14.2453 57.5682 14.46C57.8108 14.6653 58.1095 14.768 58.4642 14.768ZM66.7412 16.14C66.1252 16.14 65.5232 16.042 64.9352 15.846C64.3472 15.65 63.8432 15.37 63.4232 15.006L64.1232 13.83C64.5712 14.1473 65.0052 14.39 65.4252 14.558C65.8546 14.7167 66.2792 14.796 66.6992 14.796C67.0726 14.796 67.3666 14.726 67.5812 14.586C67.7959 14.446 67.9032 14.2453 67.9032 13.984C67.9032 13.7227 67.7772 13.5313 67.5252 13.41C67.2732 13.2887 66.8626 13.1487 66.2932 12.99C65.8172 12.8593 65.4112 12.7333 65.0752 12.612C64.7392 12.4907 64.4686 12.3553 64.2632 12.206C64.0579 12.0473 63.9086 11.87 63.8152 11.674C63.7219 11.4687 63.6752 11.226 63.6752 10.946C63.6752 10.5727 63.7452 10.2367 63.8852 9.938C64.0346 9.63933 64.2399 9.38733 64.5012 9.182C64.7626 8.96733 65.0659 8.804 65.4112 8.692C65.7659 8.58 66.1486 8.524 66.5592 8.524C67.1099 8.524 67.6232 8.60333 68.0992 8.762C68.5846 8.92067 69.0279 9.17733 69.4292 9.532L68.6732 10.666C68.2999 10.386 67.9359 10.1807 67.5812 10.05C67.2359 9.91933 66.8906 9.854 66.5452 9.854C66.2279 9.854 65.9619 9.91933 65.7472 10.05C65.5326 10.1807 65.4252 10.3907 65.4252 10.68C65.4252 10.8107 65.4486 10.918 65.4952 11.002C65.5512 11.086 65.6352 11.1607 65.7472 11.226C65.8592 11.2913 66.0039 11.3567 66.1812 11.422C66.3679 11.478 66.5966 11.5387 66.8672 11.604C67.3712 11.7347 67.8006 11.8653 68.1552 11.996C68.5192 12.1267 68.8132 12.276 69.0372 12.444C69.2706 12.612 69.4386 12.808 69.5412 13.032C69.6532 13.2467 69.7092 13.508 69.7092 13.816C69.7092 14.5347 69.4432 15.104 68.9112 15.524C68.3792 15.9347 67.6559 16.14 66.7412 16.14ZM70.9282 16V8.664H72.8042V16H70.9282ZM70.9282 7.642V5.78H72.8042V7.642H70.9282Z" fill="#293881"/>
<path d="M8 21H14C19 21 21 19 21 14V8C21 3 19 1 14 1H8C3 1 1 3 1 8V14C1 19 3 21 8 21Z" stroke="#293881" stroke-width="1.5" stroke-linecap="round" stroke-linejoin="round"/>
<path d="M16.35 8.05004L14.01 15.59C13.45 17.38 10.94 17.41 10.35 15.63L9.64997 13.56C9.45997 12.99 9.00997 12.53 8.43997 12.35L6.35997 11.65C4.58997 11.06 4.61997 8.53004 6.40997 7.99004L13.95 5.64003C15.43 5.19003 16.82 6.58004 16.35 8.05004Z" stroke="#293881" stroke-width="1.5" stroke-linecap="round" stroke-linejoin="round"/>
</svg>
