<svg width="72" height="22" viewBox="0 0 72 22" fill="none" xmlns="http://www.w3.org/2000/svg">
<path d="M32.036 14V4.06H36.25C36.7073 4.06 37.1273 4.158 37.51 4.354C37.902 4.54067 38.238 4.79267 38.518 5.11C38.798 5.418 39.0173 5.77267 39.176 6.174C39.3347 6.566 39.414 6.96267 39.414 7.364C39.414 7.784 39.3393 8.19467 39.19 8.596C39.0407 8.988 38.8307 9.338 38.56 9.646C38.2893 9.954 37.9627 10.2013 37.58 10.388C37.1973 10.5747 36.7773 10.668 36.32 10.668H33.968V14H32.036ZM33.968 8.974H36.208C36.5627 8.974 36.8567 8.82933 37.09 8.54C37.3327 8.25067 37.454 7.85867 37.454 7.364C37.454 7.112 37.4167 6.888 37.342 6.692C37.2673 6.48667 37.1693 6.314 37.048 6.174C36.9267 6.034 36.782 5.93133 36.614 5.866C36.4553 5.79133 36.292 5.754 36.124 5.754H33.968V8.974ZM43.8556 14.14C43.2676 14.14 42.7356 14.042 42.2596 13.846C41.7836 13.6407 41.3776 13.3653 41.0416 13.02C40.7056 12.6747 40.4443 12.2733 40.2576 11.816C40.0803 11.3587 39.9916 10.878 39.9916 10.374C39.9916 9.85133 40.0803 9.36133 40.2576 8.904C40.4349 8.43733 40.6916 8.03133 41.0276 7.686C41.3636 7.33133 41.7696 7.05133 42.2456 6.846C42.7309 6.64067 43.2723 6.538 43.8696 6.538C44.4669 6.538 44.9989 6.64067 45.4656 6.846C45.9416 7.05133 46.3429 7.32667 46.6696 7.672C47.0056 8.01733 47.2576 8.41867 47.4256 8.876C47.6029 9.33333 47.6916 9.80933 47.6916 10.304C47.6916 10.4253 47.6869 10.542 47.6776 10.654C47.6776 10.766 47.6683 10.8593 47.6496 10.934H41.9796C42.0076 11.2233 42.0776 11.48 42.1896 11.704C42.3016 11.928 42.4463 12.1193 42.6236 12.278C42.8009 12.4367 43.0016 12.558 43.2256 12.642C43.4496 12.726 43.6829 12.768 43.9256 12.768C44.2989 12.768 44.6489 12.6793 44.9756 12.502C45.3116 12.3153 45.5403 12.0727 45.6616 11.774L47.2716 12.222C47.0009 12.782 46.5669 13.244 45.9696 13.608C45.3816 13.9627 44.6769 14.14 43.8556 14.14ZM45.7596 9.716C45.7129 9.16533 45.5076 8.72667 45.1436 8.4C44.7889 8.064 44.3549 7.896 43.8416 7.896C43.5896 7.896 43.3516 7.94267 43.1276 8.036C42.9129 8.12 42.7216 8.24133 42.5536 8.4C42.3856 8.55867 42.2456 8.75 42.1336 8.974C42.0309 9.198 41.9703 9.44533 41.9516 9.716H45.7596ZM51.6065 14.14C50.9905 14.14 50.3885 14.042 49.8005 13.846C49.2125 13.65 48.7085 13.37 48.2885 13.006L48.9885 11.83C49.4365 12.1473 49.8705 12.39 50.2905 12.558C50.7198 12.7167 51.1445 12.796 51.5645 12.796C51.9378 12.796 52.2318 12.726 52.4465 12.586C52.6611 12.446 52.7685 12.2453 52.7685 11.984C52.7685 11.7227 52.6425 11.5313 52.3905 11.41C52.1385 11.2887 51.7278 11.1487 51.1585 10.99C50.6825 10.8593 50.2765 10.7333 49.9405 10.612C49.6045 10.4907 49.3338 10.3553 49.1285 10.206C48.9231 10.0473 48.7738 9.87 48.6805 9.674C48.5871 9.46867 48.5405 9.226 48.5405 8.946C48.5405 8.57267 48.6105 8.23667 48.7505 7.938C48.8998 7.63933 49.1051 7.38733 49.3665 7.182C49.6278 6.96733 49.9311 6.804 50.2765 6.692C50.6311 6.58 51.0138 6.524 51.4245 6.524C51.9751 6.524 52.4885 6.60333 52.9645 6.762C53.4498 6.92067 53.8931 7.17733 54.2945 7.532L53.5385 8.666C53.1651 8.386 52.8011 8.18067 52.4465 8.05C52.1011 7.91933 51.7558 7.854 51.4105 7.854C51.0931 7.854 50.8271 7.91933 50.6125 8.05C50.3978 8.18067 50.2905 8.39067 50.2905 8.68C50.2905 8.81067 50.3138 8.918 50.3605 9.002C50.4165 9.086 50.5005 9.16067 50.6125 9.226C50.7245 9.29133 50.8691 9.35667 51.0465 9.422C51.2331 9.478 51.4618 9.53867 51.7325 9.604C52.2365 9.73467 52.6658 9.86533 53.0205 9.996C53.3845 10.1267 53.6785 10.276 53.9025 10.444C54.1358 10.612 54.3038 10.808 54.4065 11.032C54.5185 11.2467 54.5745 11.508 54.5745 11.816C54.5745 12.5347 54.3085 13.104 53.7765 13.524C53.2445 13.9347 52.5211 14.14 51.6065 14.14ZM57.7955 14.14C57.4408 14.14 57.1095 14.084 56.8015 13.972C56.4935 13.8507 56.2275 13.6873 56.0035 13.482C55.7795 13.2673 55.6021 13.02 55.4715 12.74C55.3501 12.46 55.2895 12.152 55.2895 11.816C55.2895 11.4707 55.3641 11.1533 55.5135 10.864C55.6721 10.5653 55.8868 10.3133 56.1575 10.108C56.4375 9.90267 56.7688 9.744 57.1515 9.632C57.5341 9.51067 57.9541 9.45 58.4115 9.45C58.7381 9.45 59.0555 9.478 59.3635 9.534C59.6808 9.59 59.9608 9.66933 60.2035 9.772V9.352C60.2035 8.86667 60.0635 8.49333 59.7835 8.232C59.5128 7.97067 59.1068 7.84 58.5655 7.84C58.1735 7.84 57.7908 7.91 57.4175 8.05C57.0441 8.19 56.6615 8.39533 56.2695 8.666L55.6955 7.476C56.6381 6.85067 57.6555 6.538 58.7475 6.538C59.8021 6.538 60.6188 6.79933 61.1975 7.322C61.7855 7.83533 62.0795 8.582 62.0795 9.562V11.844C62.0795 12.04 62.1121 12.18 62.1775 12.264C62.2521 12.348 62.3688 12.3947 62.5275 12.404V14C62.2101 14.0653 61.9348 14.098 61.7015 14.098C61.3468 14.098 61.0715 14.0187 60.8755 13.86C60.6888 13.7013 60.5721 13.4913 60.5255 13.23L60.4835 12.824C60.1568 13.2533 59.7601 13.58 59.2935 13.804C58.8268 14.028 58.3275 14.14 57.7955 14.14ZM58.3275 12.768C58.6448 12.768 58.9435 12.712 59.2235 12.6C59.5128 12.488 59.7368 12.3387 59.8955 12.152C60.1008 11.9933 60.2035 11.816 60.2035 11.62V10.78C59.9795 10.696 59.7368 10.6307 59.4755 10.584C59.2141 10.528 58.9621 10.5 58.7195 10.5C58.2341 10.5 57.8375 10.612 57.5295 10.836C57.2215 11.0507 57.0675 11.326 57.0675 11.662C57.0675 11.9793 57.1888 12.2453 57.4315 12.46C57.6741 12.6653 57.9728 12.768 58.3275 12.768ZM70.6505 14H68.7745V9.884C68.7745 9.296 68.6718 8.86667 68.4665 8.596C68.2612 8.32533 67.9765 8.19 67.6125 8.19C67.4258 8.19 67.2345 8.22733 67.0385 8.302C66.8425 8.37667 66.6558 8.484 66.4785 8.624C66.3105 8.75467 66.1565 8.91333 66.0165 9.1C65.8765 9.28667 65.7738 9.492 65.7085 9.716V14H63.8325V6.664H65.5265V8.022C65.7972 7.55533 66.1892 7.19133 66.7025 6.93C67.2158 6.66867 67.7945 6.538 68.4385 6.538C68.8958 6.538 69.2692 6.622 69.5585 6.79C69.8478 6.958 70.0718 7.17733 70.2305 7.448C70.3892 7.71867 70.4965 8.02667 70.5525 8.372C70.6178 8.71733 70.6505 9.06733 70.6505 9.422V14Z" fill="#293881"/>
<path d="M21 7V12C21 16 19 18 15 18H14.5C14.19 18 13.89 18.15 13.7 18.4L12.2 20.4C11.54 21.28 10.46 21.28 9.8 20.4L8.3 18.4C8.14 18.18 7.77 18 7.5 18H7C3 18 1 17 1 12V7C1 3 3 1 7 1H11" stroke="#293881" stroke-width="1.5" stroke-miterlimit="10" stroke-linecap="round" stroke-linejoin="round"/>
<path d="M14.2 3.61996C13.87 2.62996 14.26 1.40996 15.34 1.06996C15.9 0.899958 16.6 1.03996 17 1.56996C17.38 1.01996 18.1 0.899958 18.66 1.06996C19.74 1.39996 20.13 2.62996 19.8 3.61996C19.29 5.18996 17.5 5.99996 17 5.99996C16.5 5.99996 14.73 5.19996 14.2 3.61996Z" stroke="#293881" stroke-width="1.5" stroke-linecap="round" stroke-linejoin="round"/>
<path d="M14.9965 10H15.0054" stroke="#293881" stroke-width="2" stroke-linecap="round" stroke-linejoin="round"/>
<path d="M10.9955 10H11.0045" stroke="#293881" stroke-width="2" stroke-linecap="round" stroke-linejoin="round"/>
<path d="M6.99451 10H7.00349" stroke="#293881" stroke-width="2" stroke-linecap="round" stroke-linejoin="round"/>
</svg>
