<svg width="26" height="31" viewBox="0 0 26 31" fill="none" xmlns="http://www.w3.org/2000/svg">
<path d="M20.5 9.5C20.5 8.12 21.62 7 23 7V6C23 2 22 1 18 1H8C4 1 3 2 3 6V6.5C4.38 6.5 5.5 7.62 5.5 9C5.5 10.38 4.38 11.5 3 11.5V12C3 16 4 17 8 17H18C22 17 23 16 23 12C21.62 12 20.5 10.88 20.5 9.5Z" stroke="white" stroke-width="1.5" stroke-linecap="round" stroke-linejoin="round"/>
<path d="M10 11.75L16 5.75" stroke="white" stroke-width="1.5" stroke-linecap="round" stroke-linejoin="round"/>
<path d="M15.9945 11.75H16.0035" stroke="white" stroke-width="2" stroke-linecap="round" stroke-linejoin="round"/>
<path d="M9.99451 6.25H10.0035" stroke="white" stroke-width="2" stroke-linecap="round" stroke-linejoin="round"/>
<path d="M4.40625 24.8531C4.40625 25.4313 4.20833 25.8766 3.8125 26.1891C3.41927 26.499 2.85547 26.6539 2.12109 26.6539H1.44922V28.9H0.785156V23.1891H2.26562C3.69271 23.1891 4.40625 23.7438 4.40625 24.8531ZM1.44922 26.0836H2.04688C2.63542 26.0836 3.0612 25.9886 3.32422 25.7985C3.58724 25.6084 3.71875 25.3037 3.71875 24.8844C3.71875 24.5068 3.59505 24.2255 3.34766 24.0406C3.10026 23.8558 2.71484 23.7633 2.19141 23.7633H1.44922V26.0836ZM7.46094 24.5406C7.65104 24.5406 7.82161 24.5563 7.97266 24.5875L7.88281 25.1891C7.70573 25.15 7.54948 25.1305 7.41406 25.1305C7.06771 25.1305 6.77083 25.2711 6.52344 25.5524C6.27865 25.8336 6.15625 26.1839 6.15625 26.6031V28.9H5.50781V24.6188H6.04297L6.11719 25.4117H6.14844C6.30729 25.1331 6.4987 24.9183 6.72266 24.7672C6.94661 24.6162 7.19271 24.5406 7.46094 24.5406ZM12.4688 26.7555C12.4688 27.4534 12.293 27.999 11.9414 28.3922C11.5898 28.7828 11.1042 28.9781 10.4844 28.9781C10.1016 28.9781 9.76172 28.8883 9.46484 28.7086C9.16797 28.5289 8.9388 28.2711 8.77734 27.9352C8.61589 27.5992 8.53516 27.206 8.53516 26.7555C8.53516 26.0576 8.70964 25.5146 9.05859 25.1266C9.40755 24.736 9.89193 24.5406 10.5117 24.5406C11.1107 24.5406 11.5859 24.7399 11.9375 25.1383C12.2917 25.5367 12.4688 26.0758 12.4688 26.7555ZM9.20703 26.7555C9.20703 27.3024 9.31641 27.719 9.53516 28.0055C9.75391 28.292 10.0755 28.4352 10.5 28.4352C10.9245 28.4352 11.2461 28.2933 11.4648 28.0094C11.6862 27.7229 11.7969 27.305 11.7969 26.7555C11.7969 26.2112 11.6862 25.7985 11.4648 25.5172C11.2461 25.2334 10.9219 25.0914 10.4922 25.0914C10.0677 25.0914 9.7474 25.2308 9.53125 25.5094C9.3151 25.788 9.20703 26.2034 9.20703 26.7555ZM19.0664 28.9V26.1149C19.0664 25.7737 18.9935 25.5185 18.8477 25.3492C18.7018 25.1774 18.4753 25.0914 18.168 25.0914C17.7643 25.0914 17.4661 25.2073 17.2734 25.4391C17.0807 25.6709 16.9844 26.0276 16.9844 26.5094V28.9H16.3359V26.1149C16.3359 25.7737 16.263 25.5185 16.1172 25.3492C15.9714 25.1774 15.7435 25.0914 15.4336 25.0914C15.0273 25.0914 14.7292 25.2138 14.5391 25.4586C14.3516 25.7008 14.2578 26.0992 14.2578 26.6539V28.9H13.6094V24.6188H14.1367L14.2422 25.2047H14.2734C14.3958 24.9964 14.5677 24.8336 14.7891 24.7164C15.013 24.5992 15.263 24.5406 15.5391 24.5406C16.2083 24.5406 16.6458 24.7828 16.8516 25.2672H16.8828C17.0104 25.0433 17.1953 24.8662 17.4375 24.736C17.6797 24.6058 17.9557 24.5406 18.2656 24.5406C18.75 24.5406 19.112 24.6656 19.3516 24.9156C19.5938 25.163 19.7148 25.5602 19.7148 26.1071V28.9H19.0664ZM24.75 26.7555C24.75 27.4534 24.5742 27.999 24.2227 28.3922C23.8711 28.7828 23.3854 28.9781 22.7656 28.9781C22.3828 28.9781 22.043 28.8883 21.7461 28.7086C21.4492 28.5289 21.2201 28.2711 21.0586 27.9352C20.8971 27.5992 20.8164 27.206 20.8164 26.7555C20.8164 26.0576 20.9909 25.5146 21.3398 25.1266C21.6888 24.736 22.1732 24.5406 22.793 24.5406C23.3919 24.5406 23.8672 24.7399 24.2188 25.1383C24.5729 25.5367 24.75 26.0758 24.75 26.7555ZM21.4883 26.7555C21.4883 27.3024 21.5977 27.719 21.8164 28.0055C22.0352 28.292 22.3568 28.4352 22.7812 28.4352C23.2057 28.4352 23.5273 28.2933 23.7461 28.0094C23.9674 27.7229 24.0781 27.305 24.0781 26.7555C24.0781 26.2112 23.9674 25.7985 23.7461 25.5172C23.5273 25.2334 23.2031 25.0914 22.7734 25.0914C22.349 25.0914 22.0286 25.2308 21.8125 25.5094C21.5964 25.788 21.4883 26.2034 21.4883 26.7555Z" fill="white"/>
</svg>
