<svg width="22" height="22" viewBox="0 0 22 22" fill="none" xmlns="http://www.w3.org/2000/svg">
<path d="M16.35 8.05001L14.01 15.59C13.45 17.38 10.94 17.41 10.35 15.63L9.65 13.56C9.46 12.99 9.01 12.53 8.44 12.35L6.36 11.65C4.59 11.06 4.62 8.53001 6.41 7.99001L13.95 5.64C15.43 5.19 16.82 6.58001 16.35 8.05001Z" stroke="#293881" stroke-width="1.5" stroke-linecap="round" stroke-linejoin="round"/>
<path d="M8 21H14C19 21 21 19 21 14V8C21 3 19 1 14 1H8C3 1 1 3 1 8V14C1 19 3 21 8 21Z" stroke="#293881" stroke-width="1.5" stroke-linecap="round" stroke-linejoin="round"/>
</svg>
