<svg width="47" height="47" viewBox="0 0 47 47" fill="none" xmlns="http://www.w3.org/2000/svg">
<circle cx="23.5" cy="23.5" r="23.5" fill="#DB9457" fill-opacity="0.1"/>
<path d="M23.9685 17.0831L25.4643 19.7447C25.6683 20.1152 26.2122 20.4705 26.6712 20.5386L29.3824 20.9393C31.1162 21.1964 31.5242 22.3154 30.2748 23.4194L28.167 25.2945C27.8101 25.6121 27.6146 26.2246 27.7251 26.6631L28.3285 28.9844C28.8045 30.8217 27.7081 31.5325 25.8808 30.5722L23.3396 29.2339C22.8806 28.9919 22.1242 28.9919 21.6567 29.2339L19.1155 30.5722C17.2967 31.5325 16.1919 30.8142 16.6678 28.9844L17.2712 26.6631C17.3817 26.2246 17.1862 25.6121 16.8293 25.2945L14.7215 23.4194C13.4806 22.3154 13.8801 21.1964 15.6139 20.9393L18.3251 20.5386C18.7756 20.4705 19.3195 20.1152 19.5235 19.7447L21.0193 17.0831C21.8352 15.639 23.1611 15.639 23.9685 17.0831Z" fill="white"/>
</svg>
