<svg width="47" height="47" viewBox="0 0 47 47" fill="none" xmlns="http://www.w3.org/2000/svg">
<circle cx="23.5" cy="23.5" r="23" fill="#DB9457" fill-opacity="0.1" stroke="#DB9457"/>
<path d="M12.8164 17.0156C12.8164 17.612 12.6211 18.069 12.2305 18.3867C11.8398 18.7044 11.2839 18.8633 10.5625 18.8633H9.96875V21H9.03516V15.2891H10.6797C11.3932 15.2891 11.9271 15.4349 12.2812 15.7266C12.638 16.0182 12.8164 16.4479 12.8164 17.0156ZM9.96875 18.0781H10.4648C10.944 18.0781 11.2956 17.9948 11.5195 17.8281C11.7435 17.6615 11.8555 17.401 11.8555 17.0469C11.8555 16.7188 11.7552 16.474 11.5547 16.3125C11.3542 16.151 11.0417 16.0703 10.6172 16.0703H9.96875V18.0781ZM16.0508 16.6016C16.2357 16.6016 16.388 16.6146 16.5078 16.6406L16.418 17.4961C16.2878 17.4648 16.1523 17.4492 16.0117 17.4492C15.6445 17.4492 15.3464 17.569 15.1172 17.8086C14.8906 18.0482 14.7773 18.3594 14.7773 18.7422V21H13.8594V16.6797H14.5781L14.6992 17.4414H14.7461C14.8893 17.1836 15.0755 16.9792 15.3047 16.8281C15.5365 16.6771 15.7852 16.6016 16.0508 16.6016ZM21.1445 18.832C21.1445 19.5378 20.9635 20.0885 20.6016 20.4844C20.2396 20.8802 19.7357 21.0781 19.0898 21.0781C18.6862 21.0781 18.3294 20.987 18.0195 20.8047C17.7096 20.6224 17.4714 20.3607 17.3047 20.0195C17.138 19.6784 17.0547 19.2826 17.0547 18.832C17.0547 18.1315 17.2344 17.5846 17.5938 17.1914C17.9531 16.7982 18.4596 16.6016 19.1133 16.6016C19.7383 16.6016 20.2331 16.8034 20.5977 17.207C20.9622 17.6081 21.1445 18.1497 21.1445 18.832ZM18 18.832C18 19.8294 18.3685 20.3281 19.1055 20.3281C19.8346 20.3281 20.1992 19.8294 20.1992 18.832C20.1992 17.8451 19.832 17.3516 19.0977 17.3516C18.7122 17.3516 18.4323 17.4792 18.2578 17.7344C18.0859 17.9896 18 18.3555 18 18.832ZM23.6602 21.0781C23.1211 21.0781 22.7005 20.8828 22.3984 20.4922C22.0964 20.1016 21.9453 19.5534 21.9453 18.8477C21.9453 18.1393 22.0977 17.5885 22.4023 17.1953C22.7096 16.7995 23.1341 16.6016 23.6758 16.6016C24.2435 16.6016 24.6758 16.8112 24.9727 17.2305H25.0195C24.9753 16.9206 24.9531 16.6758 24.9531 16.4961V14.9219H25.875V21H25.1562L24.9961 20.4336H24.9531C24.6589 20.8633 24.2279 21.0781 23.6602 21.0781ZM23.9062 20.3359C24.2839 20.3359 24.5586 20.2305 24.7305 20.0195C24.9023 19.806 24.9909 19.4609 24.9961 18.9844V18.8555C24.9961 18.3112 24.9076 17.9245 24.7305 17.6953C24.5534 17.4661 24.276 17.3516 23.8984 17.3516C23.5755 17.3516 23.3268 17.4831 23.1523 17.7461C22.9779 18.0065 22.8906 18.3789 22.8906 18.8633C22.8906 19.3424 22.9753 19.7083 23.1445 19.9609C23.3138 20.2109 23.5677 20.3359 23.9062 20.3359ZM30.2344 21L30.1055 20.4336H30.0586C29.931 20.6341 29.7487 20.7917 29.5117 20.9062C29.2773 21.0208 29.0091 21.0781 28.707 21.0781C28.1836 21.0781 27.793 20.9479 27.5352 20.6875C27.2773 20.4271 27.1484 20.0326 27.1484 19.5039V16.6797H28.0742V19.3438C28.0742 19.6745 28.1419 19.9232 28.2773 20.0898C28.4128 20.2539 28.625 20.3359 28.9141 20.3359C29.2995 20.3359 29.582 20.2214 29.7617 19.9922C29.944 19.7604 30.0352 19.3737 30.0352 18.832V16.6797H30.957V21H30.2344ZM34.0078 21.0781C33.3542 21.0781 32.8568 20.888 32.5156 20.5078C32.1771 20.125 32.0078 19.5768 32.0078 18.8633C32.0078 18.1367 32.1849 17.5781 32.5391 17.1875C32.8958 16.7969 33.4102 16.6016 34.082 16.6016C34.5378 16.6016 34.9479 16.6862 35.3125 16.8555L35.0352 17.5938C34.6471 17.4427 34.3268 17.3672 34.0742 17.3672C33.3268 17.3672 32.9531 17.8633 32.9531 18.8555C32.9531 19.3398 33.0456 19.7044 33.2305 19.9492C33.418 20.1914 33.6914 20.3125 34.0508 20.3125C34.4596 20.3125 34.8464 20.2109 35.2109 20.0078V20.8086C35.0469 20.9049 34.8711 20.974 34.6836 21.0156C34.4987 21.0573 34.2734 21.0781 34.0078 21.0781ZM37.8359 20.3359C38.0599 20.3359 38.2839 20.3008 38.5078 20.2305V20.9219C38.4062 20.9661 38.2747 21.0026 38.1133 21.0312C37.9544 21.0625 37.7891 21.0781 37.6172 21.0781C36.7474 21.0781 36.3125 20.6198 36.3125 19.7031V17.375H35.7227V16.9688L36.3555 16.6328L36.668 15.7188H37.2344V16.6797H38.4648V17.375H37.2344V19.6875C37.2344 19.9089 37.2891 20.0729 37.3984 20.1797C37.5104 20.2839 37.6562 20.3359 37.8359 20.3359ZM10.5156 27.9453H11.1641C11.599 27.9453 11.9141 27.8646 12.1094 27.7031C12.3047 27.5417 12.4023 27.3021 12.4023 26.9844C12.4023 26.6615 12.2969 26.4297 12.0859 26.2891C11.875 26.1484 11.5573 26.0781 11.1328 26.0781H10.5156V27.9453ZM10.5156 28.7188V31H9.58203V25.2891H11.1953C11.9323 25.2891 12.4779 25.4271 12.832 25.7031C13.1862 25.9792 13.3633 26.3958 13.3633 26.9531C13.3633 27.6641 12.9935 28.1706 12.2539 28.4727L13.8672 31H12.8047L11.4375 28.7188H10.5156ZM16.4883 31.0781C15.8164 31.0781 15.2904 30.8828 14.9102 30.4922C14.5326 30.099 14.3438 29.5586 14.3438 28.8711C14.3438 28.1654 14.5195 27.6107 14.8711 27.207C15.2227 26.8034 15.7057 26.6016 16.3203 26.6016C16.8906 26.6016 17.3411 26.7747 17.6719 27.1211C18.0026 27.4674 18.168 27.944 18.168 28.5508V29.0469H15.2891C15.3021 29.4661 15.4154 29.7891 15.6289 30.0156C15.8424 30.2396 16.1432 30.3516 16.5312 30.3516C16.7865 30.3516 17.0234 30.3281 17.2422 30.2812C17.4635 30.2318 17.7005 30.151 17.9531 30.0391V30.7852C17.7292 30.8919 17.5026 30.9674 17.2734 31.0117C17.0443 31.056 16.7826 31.0781 16.4883 31.0781ZM16.3203 27.2969C16.0286 27.2969 15.7943 27.3893 15.6172 27.5742C15.4427 27.7591 15.3385 28.0286 15.3047 28.3828H17.2656C17.2604 28.026 17.1745 27.7565 17.0078 27.5742C16.8411 27.3893 16.612 27.2969 16.3203 27.2969ZM22.7539 31L22.1953 28.9844C22.1276 28.7708 22.0052 28.2747 21.8281 27.4961H21.793C21.6419 28.1992 21.5221 28.6979 21.4336 28.9922L20.8594 31H19.8438L18.6328 26.6797H19.5703L20.1211 28.8086C20.2461 29.3346 20.3346 29.7852 20.3867 30.1602H20.4102C20.4362 29.9701 20.4753 29.7526 20.5273 29.5078C20.582 29.2604 20.6289 29.0755 20.668 28.9531L21.3242 26.6797H22.332L22.9688 28.9531C23.0078 29.0807 23.056 29.276 23.1133 29.5391C23.1732 29.8021 23.2083 30.0065 23.2188 30.1523H23.25C23.2891 29.832 23.3802 29.3841 23.5234 28.8086L24.082 26.6797H25.0039L23.7852 31H22.7539ZM28.4531 31L28.2695 30.3984H28.2383C28.0299 30.6615 27.8203 30.8411 27.6094 30.9375C27.3984 31.0312 27.1276 31.0781 26.7969 31.0781C26.3724 31.0781 26.0404 30.9635 25.8008 30.7344C25.5638 30.5052 25.4453 30.181 25.4453 29.7617C25.4453 29.3164 25.6107 28.9805 25.9414 28.7539C26.2721 28.5273 26.776 28.4036 27.4531 28.3828L28.1992 28.3594V28.1289C28.1992 27.8529 28.1341 27.6471 28.0039 27.5117C27.8763 27.3737 27.6771 27.3047 27.4062 27.3047C27.1849 27.3047 26.9727 27.3372 26.7695 27.4023C26.5664 27.4674 26.3711 27.5443 26.1836 27.6328L25.8867 26.9766C26.1211 26.8542 26.3776 26.7617 26.6562 26.6992C26.9349 26.6341 27.1979 26.6016 27.4453 26.6016C27.9948 26.6016 28.4089 26.7214 28.6875 26.9609C28.9688 27.2005 29.1094 27.5768 29.1094 28.0898V31H28.4531ZM27.0859 30.375C27.4193 30.375 27.6862 30.2826 27.8867 30.0977C28.0898 29.9102 28.1914 29.6484 28.1914 29.3125V28.9375L27.6367 28.9609C27.2044 28.9766 26.8893 29.0495 26.6914 29.1797C26.4961 29.3073 26.3984 29.5039 26.3984 29.7695C26.3984 29.9622 26.4557 30.112 26.5703 30.2188C26.6849 30.3229 26.8568 30.375 27.0859 30.375ZM32.582 26.6016C32.7669 26.6016 32.9193 26.6146 33.0391 26.6406L32.9492 27.4961C32.819 27.4648 32.6836 27.4492 32.543 27.4492C32.1758 27.4492 31.8776 27.569 31.6484 27.8086C31.4219 28.0482 31.3086 28.3594 31.3086 28.7422V31H30.3906V26.6797H31.1094L31.2305 27.4414H31.2773C31.4206 27.1836 31.6068 26.9792 31.8359 26.8281C32.0677 26.6771 32.3164 26.6016 32.582 26.6016ZM35.3008 31.0781C34.7617 31.0781 34.3411 30.8828 34.0391 30.4922C33.737 30.1016 33.5859 29.5534 33.5859 28.8477C33.5859 28.1393 33.7383 27.5885 34.043 27.1953C34.3503 26.7995 34.7747 26.6016 35.3164 26.6016C35.8841 26.6016 36.3164 26.8112 36.6133 27.2305H36.6602C36.6159 26.9206 36.5938 26.6758 36.5938 26.4961V24.9219H37.5156V31H36.7969L36.6367 30.4336H36.5938C36.2995 30.8633 35.8685 31.0781 35.3008 31.0781ZM35.5469 30.3359C35.9245 30.3359 36.1992 30.2305 36.3711 30.0195C36.543 29.806 36.6315 29.4609 36.6367 28.9844V28.8555C36.6367 28.3112 36.5482 27.9245 36.3711 27.6953C36.194 27.4661 35.9167 27.3516 35.5391 27.3516C35.2161 27.3516 34.9674 27.4831 34.793 27.7461C34.6185 28.0065 34.5312 28.3789 34.5312 28.8633C34.5312 29.3424 34.6159 29.7083 34.7852 29.9609C34.9544 30.2109 35.2083 30.3359 35.5469 30.3359Z" fill="#DB9457"/>
</svg>
