<svg width="47" height="47" viewBox="0 0 47 47" fill="none" xmlns="http://www.w3.org/2000/svg">
<circle cx="23.5" cy="23.5" r="23.5" fill="#DB9457"/>
<path d="M24.3821 17.0831L25.79 19.7447C25.9819 20.1152 26.4939 20.4705 26.9258 20.5386L29.4775 20.9393C31.1094 21.1964 31.4933 22.3154 30.3175 23.4194L28.3337 25.2945C27.9977 25.6121 27.8137 26.2246 27.9177 26.6631L28.4857 28.9844C28.9336 30.8217 27.9017 31.5325 26.1819 30.5722L23.7902 29.2339C23.3582 28.9919 22.6463 28.9919 22.2063 29.2339L19.8146 30.5722C18.1028 31.5325 17.0629 30.8142 17.5109 28.9844L18.0788 26.6631C18.1828 26.2246 17.9988 25.6121 17.6629 25.2945L15.6791 23.4194C14.5112 22.3154 14.8872 21.1964 16.519 20.9393L19.0707 20.5386C19.4946 20.4705 20.0066 20.1152 20.1986 19.7447L21.6064 17.0831C22.3743 15.639 23.6222 15.639 24.3821 17.0831Z" fill="white"/>
</svg>
